<?xml version="1.0" encoding="utf-8"?>
<!-- Generator: Adobe Illustrator 21.0.0, SVG Export Plug-In . SVG Version: 6.00 Build 0)  -->
<svg version="1.1" id="图层_1" xmlns="http://www.w3.org/2000/svg" xmlns:xlink="http://www.w3.org/1999/xlink" x="0px" y="0px"
	 viewBox="0 0 713 211" style="enable-background:new 0 0 713 211;" xml:space="preserve">
<style type="text/css">
	.st0{fill:#FFFFFF;}
</style>
<g>
	<g id="XMLID_116_">
		<path id="XMLID_149_" class="st0" d="M110.7,25.1c-44.4,0-80.4,36-80.4,80.4c0,44.4,36,80.4,80.4,80.4c44.4,0,80.4-36,80.4-80.4
			C191.1,61.1,155.1,25.1,110.7,25.1 M150.2,140.3c-1.3,0-2.6-0.1-3.9-0.2c-1.3-0.1-2.7-0.3-4.2-0.6l-3.7-13.4l-3.3-12.6l-6.2-24.9
			l-13.8,49c-3.8,1.4-6.2,2.4-10.2,3c-3.7,0.6-6.9,0.7-9.5,0.7c-5.7,0-10.6-0.9-14.9-2.7c-4.2-1.8-7.8-4.2-10.7-7.4
			c-2.9-3.1-5-6.9-6.4-11.3c-1.4-4.4-2.1-9.1-2.1-14.3c0-5.1,0.7-9.9,2.2-14.3c1.5-4.4,3.6-8.2,6.4-11.4c2.8-3.2,6.3-5.7,10.4-7.5
			c4.1-1.8,8.8-2.7,14-2.7c3.1,0,6,0.2,8.8,0.7c2.8,0.5,5.9,1.4,9.2,2.8c-0.1,2.6-0.6,5.2-1.4,7.7c-0.8,2.5-1.7,4.6-2.6,6.4
			c-1.3-0.5-2.5-0.8-3.5-1.2c-1.1-0.3-2.1-0.6-3-0.8c-1-0.2-1.9-0.3-2.9-0.4c-1-0.1-2-0.1-3.1-0.1c-5.2,0-9.2,1.8-12.1,5.3
			c-2.8,3.5-4.2,8.7-4.2,15.7c0,6.9,1.4,12,4.1,15.4c2.8,3.4,6.9,5.1,12.3,5.1c1.2,0,2.3-0.1,3.3-0.3l0.2,0c1.4-0.3,2.5-0.6,3.6-0.9
			l3.3-10.4h-12c-0.2-1.4-0.4-2.6-0.5-3.7c-0.1-1.1-0.2-2.1-0.2-3c0-0.9,0-1.9,0.2-3.1c0.1-1.2,0.3-2.4,0.5-3.6h16.2h11.3
			c0,0-2.5-0.5-5.4-1c-2.9-0.5-5.2-0.8-5.2-0.8l9.1-28.9c1.7-0.2,3.2-0.4,4.7-0.5c1.4-0.1,2.9-0.2,4.4-0.2c1.2,0,2.6,0.1,4,0.2
			c1.4,0.1,3.1,0.3,5,0.5l21.3,69C156.2,140,153,140.3,150.2,140.3"/>
		<g id="XMLID_117_">
			<path id="XMLID_147_" class="st0" d="M265.9,122.2c-2.9,1.2-8.6,2.7-14.8,2.7c-22.5,0-25.4-17.9-25.4-26.2
				c0-16.9,11.1-26.9,26.7-26.9c5.1,0,9.5,0.9,12.1,2.2l-1.8,6.5c-2.5-1.1-5.6-2-10.3-2c-10.7,0-18.4,6.7-18.4,19.9
				c0,13.1,7.1,20.1,17.4,20.1c3.4,0,5.8-0.5,6.9-1.1v-14.7h-9v-6.3h16.6V122.2z"/>
			<path id="XMLID_144_" class="st0" d="M301.2,115.4c0,3.2,0.1,6.5,0.5,8.9h-7.1l-0.5-4.4h-0.2c-2.1,2.9-5.8,5.1-10.5,5.1
				c-7,0-11-5.2-11-11c0-9.3,8.1-14,21-14c0-2.8,0-8.4-7.6-8.4c-3.3,0-6.7,1-9.1,2.6l-1.6-5.2c2.6-1.7,7.1-3.1,12.1-3.1
				c11,0,14.1,7.3,14.1,15.2V115.4z M293.5,105.5c-6.2,0-13.3,1.2-13.3,7.8c0,4.2,2.6,6,5.5,6c4.3,0,7.8-3.3,7.8-7.6V105.5z"/>
			<path id="XMLID_142_" class="st0" d="M362.6,124.3h-7.8v-21.4c0-6.3-2-10.4-6.8-10.4c-3.6,0-7.3,3.3-7.3,8.7v23.1H333v-22.6
				c0-5.2-2-9.3-6.5-9.3c-3.5,0-7.6,3.2-7.6,9.1v22.7h-7.8V97.4c0-4.2-0.1-7.3-0.3-10.5h6.8l0.4,5.5h0.2c1.8-3.1,5.2-6.3,11-6.3
				c4.8,0,8.4,2.7,9.9,6.9h0.1c2.5-4.1,6.2-6.9,11.6-6.9c5.6,0,11.7,3.8,11.7,15.7V124.3z"/>
			<path id="XMLID_139_" class="st0" d="M399.9,122.8c-2.7,1.2-6.8,2.2-11.9,2.2c-11.3,0-17.8-7.6-17.8-19
				c0-11.2,6.3-20.1,16.9-20.1c10.6,0,14.8,8.8,14.8,18c0,1.3-0.1,2.4-0.2,3.3h-23.8c0.2,8.4,5.4,11.6,11.4,11.6
				c4.2,0,7-0.7,9.5-1.8L399.9,122.8z M394.3,101.7c0.1-4.5-1.8-10.1-7.8-10.1c-5.8,0-8.2,5.7-8.6,10.1H394.3z"/>
			<path id="XMLID_136_" class="st0" d="M447.6,124.3h-8.3l-4.7-15.3h-15.9l-4.5,15.3h-8.1L422,72.3h9.7L447.6,124.3z M433.3,102.9
				l-4.1-13.6c-1-3.4-1.8-7.1-2.6-10.3h-0.1c-0.8,3.2-1.6,7-2.4,10.2l-4.2,13.7H433.3z"/>
			<path id="XMLID_134_" class="st0" d="M485.3,124.3h-7.9v-22c0-5.3-1.8-9.8-7.1-9.8c-3.9,0-8,3.2-8,9.2v22.6h-7.9V97.4
				c0-4.1-0.1-7.3-0.3-10.5h6.9l0.4,5.6h0.2c1.8-3.2,5.7-6.4,11.4-6.4c5.9,0,12.4,3.8,12.4,15.4V124.3z"/>
			<path id="XMLID_131_" class="st0" d="M521.5,115.4c0,3.2,0.1,6.5,0.5,8.9h-7.1l-0.5-4.4h-0.2c-2.1,2.9-5.8,5.1-10.5,5.1
				c-7,0-11-5.2-11-11c0-9.3,8.1-14,21-14c0-2.8,0-8.4-7.6-8.4c-3.3,0-6.7,1-9.1,2.6l-1.6-5.2c2.7-1.7,7.1-3.1,12.1-3.1
				c11,0,14.1,7.3,14.1,15.2V115.4z M513.8,105.5c-6.2,0-13.3,1.2-13.3,7.8c0,4.2,2.6,6,5.5,6c4.3,0,7.8-3.3,7.8-7.6V105.5z"/>
			<path id="XMLID_129_" class="st0" d="M539.3,124.3h-7.9V69.7h7.9V124.3z"/>
			<path id="XMLID_127_" class="st0" d="M579,86.8l-9,26c-4.4,12.3-7.6,19.3-12,23.6c-3.4,3.1-6.9,4.4-8.7,4.8l-2-6.7
				c8.2-2.9,11.1-10.5,11.1-11.6c0-0.4-0.1-0.9-0.4-1.6L545,86.8h8.6l6.8,21.1c0.7,2.4,1.5,5.3,2,7.5h0.2c0.5-2.2,1.3-5,2-7.5
				l6.1-21.1H579z"/>
			<path id="XMLID_125_" class="st0" d="M586.8,80l7.8-2.5v9.3h8.9v5.9h-8.9v19c0,4.6,1.4,6.9,4.8,6.9c1.6,0,2.5-0.2,3.5-0.5
				l0.3,6.1c-1.4,0.5-3.5,0.9-6.1,0.9c-3.1,0-5.8-1-7.4-2.9c-1.9-2-2.8-5.2-2.8-10.1V92.7h-5.3v-5.9h5.3V80z"/>
			<path id="XMLID_122_" class="st0" d="M614.4,81c-2.7,0-4.6-2-4.6-4.6c0-2.7,1.9-4.6,4.6-4.6c2.7,0,4.6,2,4.6,4.6
				C619.1,79,617.3,81,614.4,81z M618.4,124.3h-7.9V86.8h7.9V124.3z"/>
			<path id="XMLID_120_" class="st0" d="M653.8,123.2c-1.8,0.8-5.3,1.9-9.7,1.9c-10.8,0-17.9-7.4-17.9-19.1
				c0-11.4,7.4-19.9,19.4-19.9c3.6,0,6.7,0.9,8.4,1.7l-1.6,6.1c-1.4-0.7-3.5-1.5-6.7-1.5c-7.4,0-11.4,6-11.4,13.3
				c0,8.2,4.8,13.1,11.4,13.1c3.1,0,5.3-0.7,7.1-1.5L653.8,123.2z"/>
			<path id="XMLID_118_" class="st0" d="M679.5,93.9c-1.5-0.9-4.1-2.1-7.1-2.1c-3.5,0-5.4,2-5.4,4.6c0,2.6,1.7,3.9,6.3,5.9
				c6.2,2.5,9.5,5.9,9.5,11.4c0,7.2-5.5,11.5-14,11.5c-3.9,0-7.7-1-10.2-2.5l1.8-5.9c1.9,1.2,5.4,2.5,8.6,2.5c4.2,0,6.3-2,6.3-4.9
				c0-2.9-1.6-4.4-6.1-6.3c-6.7-2.7-9.6-6.4-9.6-10.7c0-6.3,5.1-11.2,13-11.2c3.7,0,6.9,1,8.9,2.2L679.5,93.9z"/>
		</g>
	</g>
	<g id="XMLID_30_">
		<path id="XMLID_113_" class="st0" d="M245.7,173.4c0,0.4,0.1,0.8,0.2,1c0.1,0.2,0.3,0.3,0.7,0.3c0.1,0,0.2,0,0.4,0
			c0.1,0,0.3,0,0.5-0.1v2.5c-0.1,0-0.3,0.1-0.5,0.1c-0.2,0.1-0.4,0.1-0.6,0.1c-0.2,0-0.4,0.1-0.6,0.1c-0.2,0-0.4,0-0.5,0
			c-0.7,0-1.4-0.1-1.8-0.4c-0.5-0.3-0.8-0.8-1-1.6c-0.7,0.7-1.6,1.2-2.7,1.5c-1.1,0.3-2.1,0.5-3,0.5c-0.7,0-1.5-0.1-2.1-0.3
			c-0.7-0.2-1.3-0.5-1.8-0.9c-0.5-0.4-0.9-0.9-1.2-1.5c-0.3-0.6-0.5-1.3-0.5-2.1c0-1,0.2-1.8,0.6-2.5c0.4-0.6,0.9-1.1,1.5-1.5
			c0.6-0.4,1.3-0.6,2-0.8c0.8-0.2,1.5-0.3,2.3-0.4c0.7-0.1,1.3-0.2,1.9-0.3c0.6-0.1,1.1-0.1,1.6-0.3c0.5-0.1,0.8-0.3,1.1-0.6
			c0.3-0.3,0.4-0.7,0.4-1.2c0-0.5-0.1-0.8-0.3-1.1c-0.2-0.3-0.5-0.5-0.8-0.7c-0.3-0.2-0.7-0.3-1.1-0.3c-0.4-0.1-0.8-0.1-1.1-0.1
			c-1,0-1.9,0.2-2.5,0.6c-0.7,0.4-1,1.1-1.1,2h-3.6c0.1-1.1,0.3-1.9,0.8-2.6c0.4-0.7,1-1.3,1.7-1.7c0.7-0.4,1.5-0.7,2.3-0.9
			c0.9-0.2,1.8-0.3,2.7-0.3c0.8,0,1.6,0.1,2.4,0.3c0.8,0.2,1.5,0.4,2.1,0.8c0.6,0.4,1.1,0.9,1.5,1.5s0.6,1.3,0.6,2.2V173.4z
			 M242.1,168.8c-0.6,0.4-1.2,0.6-2,0.7c-0.8,0.1-1.6,0.2-2.4,0.3c-0.4,0.1-0.8,0.2-1.1,0.3c-0.4,0.1-0.7,0.3-1,0.5
			c-0.3,0.2-0.5,0.5-0.7,0.8c-0.2,0.3-0.2,0.7-0.2,1.2c0,0.4,0.1,0.7,0.4,1c0.2,0.3,0.5,0.5,0.8,0.7c0.3,0.2,0.7,0.3,1.1,0.3
			c0.4,0.1,0.7,0.1,1.1,0.1c0.4,0,0.8-0.1,1.3-0.2c0.5-0.1,0.9-0.3,1.3-0.5c0.4-0.3,0.8-0.6,1-1c0.3-0.4,0.4-0.9,0.4-1.5V168.8z"/>
		<path id="XMLID_110_" class="st0" d="M257.7,154.3h5.6l6.3,17.8h0.1l6.1-17.8h5.5v22.8h-3.8v-17.6h-0.1l-6.3,17.6h-3.3l-6.3-17.6
			h-0.1v17.6h-3.8V154.3z"/>
		<path id="XMLID_107_" class="st0" d="M291.9,177.5c-1.3,0-2.5-0.2-3.5-0.7c-1-0.4-1.9-1-2.6-1.8c-0.7-0.8-1.3-1.7-1.6-2.7
			c-0.4-1.1-0.6-2.2-0.6-3.5c0-1.3,0.2-2.4,0.6-3.5c0.4-1.1,0.9-2,1.6-2.7c0.7-0.8,1.6-1.4,2.6-1.8c1-0.4,2.2-0.7,3.5-0.7
			s2.5,0.2,3.5,0.7c1,0.4,1.9,1,2.6,1.8c0.7,0.8,1.3,1.7,1.6,2.7c0.4,1.1,0.6,2.2,0.6,3.5c0,1.3-0.2,2.4-0.6,3.5
			c-0.4,1.1-0.9,2-1.6,2.7c-0.7,0.8-1.6,1.4-2.6,1.8C294.4,177.3,293.2,177.5,291.9,177.5z M291.9,174.7c0.8,0,1.5-0.2,2.1-0.5
			c0.6-0.3,1.1-0.8,1.5-1.3c0.4-0.6,0.7-1.2,0.8-1.9c0.2-0.7,0.3-1.4,0.3-2.1c0-0.7-0.1-1.4-0.3-2.1c-0.2-0.7-0.5-1.3-0.8-1.9
			c-0.4-0.5-0.9-1-1.5-1.3c-0.6-0.3-1.3-0.5-2.1-0.5c-0.8,0-1.5,0.2-2.1,0.5c-0.6,0.3-1.1,0.8-1.5,1.3c-0.4,0.5-0.7,1.2-0.8,1.9
			c-0.2,0.7-0.3,1.4-0.3,2.1c0,0.7,0.1,1.4,0.3,2.1c0.2,0.7,0.5,1.3,0.8,1.9c0.4,0.6,0.9,1,1.5,1.3
			C290.4,174.5,291.1,174.7,291.9,174.7z"/>
		<path id="XMLID_104_" class="st0" d="M302,154.3h3.6v8.4h0.1c0.3-0.4,0.6-0.8,0.9-1.1c0.4-0.3,0.8-0.6,1.2-0.8
			c0.4-0.2,0.9-0.4,1.4-0.5c0.5-0.1,1-0.2,1.4-0.2c1.3,0,2.4,0.2,3.4,0.7c1,0.5,1.8,1.1,2.4,1.9s1.1,1.7,1.4,2.8s0.5,2.2,0.5,3.4
			c0,1.1-0.1,2.2-0.4,3.2c-0.3,1-0.7,2-1.3,2.8c-0.6,0.8-1.3,1.4-2.2,1.9c-0.9,0.5-1.9,0.7-3.2,0.7c-0.6,0-1.1,0-1.7-0.1
			c-0.6-0.1-1.1-0.2-1.6-0.4c-0.5-0.2-1-0.5-1.4-0.8s-0.8-0.8-1-1.3h-0.1v2.3H302V154.3z M314.7,168.9c0-0.7-0.1-1.5-0.3-2.2
			c-0.2-0.7-0.5-1.3-0.9-1.9c-0.4-0.5-0.9-1-1.4-1.3c-0.6-0.3-1.2-0.5-2-0.5c-1.5,0-2.7,0.5-3.5,1.6c-0.8,1.1-1.2,2.5-1.2,4.2
			c0,0.8,0.1,1.6,0.3,2.3c0.2,0.7,0.5,1.3,0.9,1.8c0.4,0.5,0.9,0.9,1.5,1.2c0.6,0.3,1.2,0.4,2,0.4c0.8,0,1.5-0.2,2.1-0.5
			s1-0.8,1.4-1.3c0.4-0.5,0.6-1.2,0.8-1.8C314.6,170.3,314.7,169.6,314.7,168.9z"/>
		<path id="XMLID_102_" class="st0" d="M318.5,160.6h4l4.2,12.7h0.1l4-12.7h3.8l-5.9,16.5h-4.1L318.5,160.6z"/>
		<path id="XMLID_99_" class="st0" d="M335.5,154.3h3.6v3.4h-3.6V154.3z M335.5,160.6h3.6v16.5h-3.6V160.6z"/>
		<path id="XMLID_97_" class="st0" d="M344.6,171.8c0.1,1.1,0.5,1.8,1.2,2.2c0.7,0.4,1.5,0.6,2.5,0.6c0.3,0,0.7,0,1.2-0.1
			c0.4-0.1,0.8-0.2,1.2-0.3c0.4-0.1,0.7-0.4,0.9-0.7c0.2-0.3,0.4-0.7,0.3-1.1c0-0.5-0.2-0.9-0.5-1.1c-0.3-0.3-0.7-0.5-1.2-0.7
			c-0.5-0.2-1.1-0.3-1.7-0.5c-0.6-0.1-1.3-0.3-1.9-0.4c-0.7-0.1-1.3-0.3-2-0.5c-0.6-0.2-1.2-0.5-1.7-0.9c-0.5-0.4-0.9-0.8-1.2-1.4
			c-0.3-0.6-0.4-1.3-0.4-2.1c0-0.9,0.2-1.6,0.7-2.2c0.4-0.6,1-1.1,1.7-1.5c0.7-0.4,1.4-0.6,2.2-0.8c0.8-0.1,1.6-0.2,2.3-0.2
			c0.8,0,1.7,0.1,2.4,0.3c0.8,0.2,1.5,0.5,2.1,0.9c0.6,0.4,1.1,0.9,1.6,1.6c0.4,0.6,0.7,1.4,0.8,2.3h-3.8c-0.2-0.9-0.6-1.5-1.2-1.8
			c-0.6-0.3-1.3-0.4-2.2-0.4c-0.3,0-0.6,0-0.9,0.1c-0.4,0-0.7,0.1-1,0.2c-0.3,0.1-0.6,0.3-0.8,0.5c-0.2,0.2-0.3,0.5-0.3,0.9
			c0,0.4,0.2,0.8,0.5,1.1c0.3,0.3,0.7,0.5,1.2,0.7c0.5,0.2,1.1,0.3,1.7,0.5c0.6,0.1,1.3,0.3,2,0.4c0.7,0.1,1.3,0.3,1.9,0.5
			c0.6,0.2,1.2,0.5,1.7,0.9c0.5,0.4,0.9,0.8,1.2,1.4c0.3,0.6,0.5,1.2,0.5,2c0,1-0.2,1.8-0.7,2.5c-0.4,0.7-1,1.2-1.7,1.7
			c-0.7,0.4-1.5,0.7-2.4,0.9c-0.9,0.2-1.7,0.3-2.6,0.3c-1,0-2-0.1-2.9-0.4c-0.9-0.2-1.6-0.6-2.3-1.1c-0.6-0.5-1.2-1.1-1.5-1.8
			c-0.4-0.7-0.6-1.6-0.6-2.5H344.6z"/>
		<path id="XMLID_95_" class="st0" d="M355.4,160.6h2.7v-4.9h3.6v4.9h3.3v2.7h-3.3v8.8c0,0.4,0,0.7,0,1c0,0.3,0.1,0.5,0.2,0.7
			c0.1,0.2,0.3,0.3,0.5,0.4c0.2,0.1,0.6,0.1,1,0.1c0.3,0,0.5,0,0.8,0c0.3,0,0.5,0,0.8-0.1v2.8c-0.4,0-0.8,0.1-1.2,0.1
			c-0.4,0-0.8,0.1-1.2,0.1c-1,0-1.7-0.1-2.3-0.3c-0.6-0.2-1-0.4-1.4-0.8c-0.3-0.4-0.6-0.8-0.7-1.3c-0.1-0.5-0.2-1.1-0.2-1.8v-9.7
			h-2.7V160.6z"/>
		<path id="XMLID_92_" class="st0" d="M380.3,173.4c0,0.4,0.1,0.8,0.2,1c0.1,0.2,0.3,0.3,0.7,0.3c0.1,0,0.2,0,0.4,0
			c0.1,0,0.3,0,0.5-0.1v2.5c-0.1,0-0.3,0.1-0.5,0.1c-0.2,0.1-0.4,0.1-0.6,0.1c-0.2,0-0.4,0.1-0.6,0.1c-0.2,0-0.4,0-0.5,0
			c-0.7,0-1.4-0.1-1.8-0.4c-0.5-0.3-0.8-0.8-1-1.6c-0.7,0.7-1.6,1.2-2.7,1.5c-1.1,0.3-2.1,0.5-3,0.5c-0.7,0-1.5-0.1-2.1-0.3
			c-0.7-0.2-1.3-0.5-1.8-0.9c-0.5-0.4-0.9-0.9-1.2-1.5c-0.3-0.6-0.5-1.3-0.5-2.1c0-1,0.2-1.8,0.6-2.5c0.4-0.6,0.9-1.1,1.5-1.5
			c0.6-0.4,1.3-0.6,2-0.8c0.8-0.2,1.5-0.3,2.3-0.4c0.7-0.1,1.3-0.2,1.9-0.3c0.6-0.1,1.1-0.1,1.6-0.3c0.5-0.1,0.8-0.3,1.1-0.6
			c0.3-0.3,0.4-0.7,0.4-1.2c0-0.5-0.1-0.8-0.3-1.1c-0.2-0.3-0.5-0.5-0.8-0.7c-0.3-0.2-0.7-0.3-1.1-0.3c-0.4-0.1-0.8-0.1-1.1-0.1
			c-1,0-1.9,0.2-2.5,0.6c-0.7,0.4-1,1.1-1.1,2h-3.6c0.1-1.1,0.3-1.9,0.8-2.6c0.4-0.7,1-1.3,1.7-1.7c0.7-0.4,1.5-0.7,2.3-0.9
			c0.9-0.2,1.8-0.3,2.7-0.3c0.8,0,1.6,0.1,2.4,0.3c0.8,0.2,1.5,0.4,2.1,0.8c0.6,0.4,1.1,0.9,1.5,1.5s0.6,1.3,0.6,2.2V173.4z
			 M376.6,168.8c-0.6,0.4-1.2,0.6-2,0.7c-0.8,0.1-1.6,0.2-2.4,0.3c-0.4,0.1-0.8,0.2-1.1,0.3c-0.4,0.1-0.7,0.3-1,0.5
			c-0.3,0.2-0.5,0.5-0.7,0.8c-0.2,0.3-0.2,0.7-0.2,1.2c0,0.4,0.1,0.7,0.4,1c0.2,0.3,0.5,0.5,0.8,0.7c0.3,0.2,0.7,0.3,1.1,0.3
			c0.4,0.1,0.7,0.1,1.1,0.1c0.4,0,0.8-0.1,1.3-0.2c0.5-0.1,0.9-0.3,1.3-0.5c0.4-0.3,0.8-0.6,1-1c0.3-0.4,0.4-0.9,0.4-1.5V168.8z"/>
		<path id="XMLID_90_" class="st0" d="M402.3,166.1c-0.1-1-0.6-1.8-1.2-2.3c-0.7-0.5-1.5-0.8-2.5-0.8c-0.5,0-1,0.1-1.5,0.2
			c-0.5,0.2-1,0.5-1.5,0.9c-0.4,0.4-0.8,1-1.1,1.8c-0.3,0.8-0.4,1.8-0.4,3c0,0.7,0.1,1.4,0.2,2c0.2,0.7,0.4,1.3,0.8,1.8
			c0.4,0.5,0.8,1,1.4,1.3c0.6,0.3,1.2,0.5,2,0.5c1.1,0,1.9-0.3,2.6-1c0.7-0.7,1.1-1.6,1.3-2.8h3.6c-0.3,2.1-1.2,3.8-2.4,4.9
			c-1.3,1.1-3,1.7-5.1,1.7c-1.3,0-2.4-0.2-3.4-0.7c-1-0.4-1.8-1-2.5-1.8c-0.7-0.8-1.2-1.7-1.5-2.7c-0.4-1-0.5-2.2-0.5-3.4
			c0-1.2,0.2-2.4,0.5-3.5s0.8-2,1.5-2.8c0.7-0.8,1.5-1.4,2.5-1.9c1-0.5,2.2-0.7,3.6-0.7c1,0,1.9,0.1,2.7,0.4s1.6,0.6,2.3,1.1
			c0.7,0.5,1.2,1.1,1.6,1.8c0.4,0.7,0.7,1.6,0.8,2.6H402.3z"/>
		<path id="XMLID_87_" class="st0" d="M415.8,177.5c-1.3,0-2.5-0.2-3.5-0.7c-1-0.4-1.9-1-2.6-1.8c-0.7-0.8-1.3-1.7-1.6-2.7
			c-0.4-1.1-0.6-2.2-0.6-3.5c0-1.3,0.2-2.4,0.6-3.5c0.4-1.1,0.9-2,1.6-2.7c0.7-0.8,1.6-1.4,2.6-1.8c1-0.4,2.2-0.7,3.5-0.7
			c1.3,0,2.5,0.2,3.5,0.7c1,0.4,1.9,1,2.6,1.8c0.7,0.8,1.3,1.7,1.6,2.7c0.4,1.1,0.6,2.2,0.6,3.5c0,1.3-0.2,2.4-0.6,3.5
			c-0.4,1.1-0.9,2-1.6,2.7c-0.7,0.8-1.6,1.4-2.6,1.8C418.3,177.3,417.1,177.5,415.8,177.5z M415.8,174.7c0.8,0,1.5-0.2,2.1-0.5
			c0.6-0.3,1.1-0.8,1.5-1.3c0.4-0.6,0.7-1.2,0.8-1.9c0.2-0.7,0.3-1.4,0.3-2.1c0-0.7-0.1-1.4-0.3-2.1c-0.2-0.7-0.5-1.3-0.8-1.9
			c-0.4-0.5-0.9-1-1.5-1.3c-0.6-0.3-1.3-0.5-2.1-0.5s-1.5,0.2-2.1,0.5c-0.6,0.3-1.1,0.8-1.5,1.3c-0.4,0.5-0.7,1.2-0.8,1.9
			c-0.2,0.7-0.3,1.4-0.3,2.1c0,0.7,0.1,1.4,0.3,2.1c0.2,0.7,0.5,1.3,0.8,1.9c0.4,0.6,0.9,1,1.5,1.3
			C414.3,174.5,415,174.7,415.8,174.7z"/>
		<path id="XMLID_85_" class="st0" d="M426.5,160.6h3.4v2.3h0.1c0.3-0.4,0.6-0.8,0.9-1.1s0.7-0.6,1.1-0.9c0.4-0.2,0.8-0.4,1.4-0.6
			c0.5-0.1,1.1-0.2,1.8-0.2c1,0,1.9,0.2,2.8,0.7c0.9,0.4,1.5,1.1,1.8,2.1c0.6-0.8,1.3-1.5,2.1-2c0.8-0.5,1.8-0.7,3-0.7
			c1.7,0,3.1,0.4,4.1,1.3c1,0.9,1.5,2.3,1.5,4.3v11.4h-3.6v-9.6c0-0.7,0-1.3-0.1-1.8c0-0.5-0.2-1-0.4-1.4c-0.2-0.4-0.5-0.7-0.9-0.9
			c-0.4-0.2-1-0.3-1.7-0.3c-1.2,0-2.1,0.4-2.7,1.1c-0.6,0.8-0.8,1.8-0.8,3.3v9.7h-3.6v-10.6c0-1.1-0.2-2-0.6-2.6
			c-0.4-0.6-1.2-0.9-2.3-0.9c-0.5,0-0.9,0.1-1.4,0.3c-0.4,0.2-0.8,0.5-1.1,0.8s-0.6,0.8-0.8,1.3c-0.2,0.5-0.3,1.1-0.3,1.8v9.8h-3.6
			V160.6z"/>
		<path id="XMLID_82_" class="st0" d="M453.7,160.6h3.4v2.2h0.1c0.5-1,1.2-1.6,2.1-2.1c0.9-0.4,1.9-0.6,3-0.6c1.3,0,2.4,0.2,3.4,0.7
			c1,0.5,1.8,1.1,2.4,1.9c0.6,0.8,1.1,1.7,1.4,2.8c0.3,1.1,0.5,2.2,0.5,3.4c0,1.1-0.1,2.2-0.4,3.2c-0.3,1-0.7,2-1.3,2.8
			c-0.6,0.8-1.3,1.4-2.2,1.9c-0.9,0.5-1.9,0.7-3.2,0.7c-0.5,0-1.1,0-1.6-0.1c-0.5-0.1-1-0.2-1.5-0.5c-0.5-0.2-0.9-0.5-1.4-0.8
			c-0.4-0.3-0.8-0.7-1-1.2h-0.1v8.2h-3.6V160.6z M466.4,168.9c0-0.7-0.1-1.5-0.3-2.2c-0.2-0.7-0.5-1.3-0.9-1.9
			c-0.4-0.5-0.9-1-1.4-1.3c-0.6-0.3-1.2-0.5-2-0.5c-1.5,0-2.7,0.5-3.5,1.6c-0.8,1.1-1.2,2.5-1.2,4.2c0,0.8,0.1,1.6,0.3,2.3
			c0.2,0.7,0.5,1.3,0.9,1.8c0.4,0.5,0.9,0.9,1.5,1.2c0.6,0.3,1.2,0.4,2,0.4c0.8,0,1.5-0.2,2.1-0.5s1-0.8,1.4-1.3
			c0.4-0.5,0.6-1.2,0.8-1.8C466.3,170.3,466.4,169.6,466.4,168.9z"/>
		<path id="XMLID_79_" class="st0" d="M486.3,173.4c0,0.4,0.1,0.8,0.2,1c0.1,0.2,0.3,0.3,0.7,0.3c0.1,0,0.2,0,0.4,0
			c0.1,0,0.3,0,0.5-0.1v2.5c-0.1,0-0.3,0.1-0.5,0.1c-0.2,0.1-0.4,0.1-0.6,0.1c-0.2,0-0.4,0.1-0.6,0.1c-0.2,0-0.4,0-0.5,0
			c-0.7,0-1.4-0.1-1.8-0.4c-0.5-0.3-0.8-0.8-1-1.6c-0.7,0.7-1.6,1.2-2.7,1.5c-1.1,0.3-2.1,0.5-3,0.5c-0.7,0-1.5-0.1-2.1-0.3
			c-0.7-0.2-1.3-0.5-1.8-0.9c-0.5-0.4-0.9-0.9-1.2-1.5c-0.3-0.6-0.5-1.3-0.5-2.1c0-1,0.2-1.8,0.6-2.5c0.4-0.6,0.9-1.1,1.5-1.5
			c0.6-0.4,1.3-0.6,2-0.8c0.8-0.2,1.5-0.3,2.3-0.4c0.7-0.1,1.3-0.2,1.9-0.3c0.6-0.1,1.1-0.1,1.6-0.3c0.5-0.1,0.8-0.3,1.1-0.6
			c0.3-0.3,0.4-0.7,0.4-1.2c0-0.5-0.1-0.8-0.3-1.1c-0.2-0.3-0.5-0.5-0.8-0.7c-0.3-0.2-0.7-0.3-1.1-0.3c-0.4-0.1-0.8-0.1-1.1-0.1
			c-1,0-1.9,0.2-2.5,0.6c-0.7,0.4-1,1.1-1.1,2h-3.6c0.1-1.1,0.3-1.9,0.8-2.6c0.4-0.7,1-1.3,1.7-1.7c0.7-0.4,1.5-0.7,2.3-0.9
			c0.9-0.2,1.8-0.3,2.7-0.3c0.8,0,1.6,0.1,2.4,0.3c0.8,0.2,1.5,0.4,2.1,0.8c0.6,0.4,1.1,0.9,1.5,1.5s0.6,1.3,0.6,2.2V173.4z
			 M482.6,168.8c-0.6,0.4-1.2,0.6-2,0.7c-0.8,0.1-1.6,0.2-2.4,0.3c-0.4,0.1-0.8,0.2-1.1,0.3c-0.4,0.1-0.7,0.3-1,0.5
			c-0.3,0.2-0.5,0.5-0.7,0.8c-0.2,0.3-0.2,0.7-0.2,1.2c0,0.4,0.1,0.7,0.4,1c0.2,0.3,0.5,0.5,0.8,0.7c0.3,0.2,0.7,0.3,1.1,0.3
			c0.4,0.1,0.7,0.1,1.1,0.1c0.4,0,0.8-0.1,1.3-0.2c0.5-0.1,0.9-0.3,1.3-0.5c0.4-0.3,0.8-0.6,1-1c0.3-0.4,0.4-0.9,0.4-1.5V168.8z"/>
		<path id="XMLID_44_" class="st0" d="M489.5,160.6h3.4v2.4l0.1,0.1c0.6-0.9,1.3-1.6,2.2-2.2c0.9-0.5,1.9-0.8,3-0.8
			c1.8,0,3.2,0.5,4.3,1.4c1,0.9,1.6,2.3,1.6,4.2v11.3h-3.6v-10.4c0-1.3-0.3-2.2-0.8-2.8c-0.5-0.6-1.3-0.9-2.4-0.9
			c-0.6,0-1.2,0.1-1.7,0.3c-0.5,0.2-0.9,0.5-1.2,0.9c-0.3,0.4-0.6,0.9-0.8,1.4c-0.2,0.5-0.3,1.1-0.3,1.7v9.7h-3.6V160.6z"/>
		<path id="XMLID_42_" class="st0" d="M505.4,160.6h4l4.3,12.3h0.1l4.2-12.3h3.8l-6.4,17.4c-0.3,0.7-0.6,1.5-0.9,2.1
			c-0.3,0.7-0.6,1.3-1.1,1.8c-0.4,0.5-0.9,0.9-1.5,1.2c-0.6,0.3-1.4,0.5-2.4,0.5c-0.9,0-1.7-0.1-2.5-0.2v-3.1c0.3,0,0.6,0.1,0.9,0.1
			c0.3,0.1,0.6,0.1,0.9,0.1c0.4,0,0.8-0.1,1.1-0.2c0.3-0.1,0.5-0.3,0.7-0.5c0.2-0.2,0.3-0.4,0.5-0.7c0.1-0.3,0.2-0.6,0.4-1l0.4-1.3
			L505.4,160.6z"/>
	</g>
</g>
</svg>
