<?xml version="1.0" encoding="utf-8"?>
<!-- Generator: Adobe Illustrator 21.0.0, SVG Export Plug-In . SVG Version: 6.00 Build 0)  -->
<svg version="1.1" id="图层_1" xmlns="http://www.w3.org/2000/svg" xmlns:xlink="http://www.w3.org/1999/xlink" x="0px" y="0px"
	 viewBox="0 0 637 287" style="enable-background:new 0 0 637 287;" xml:space="preserve">
<style type="text/css">
	.st0{fill:#FFFFFF;}
</style>
<g>
	<g>
		<path class="st0" d="M89.8,120.2v49.3h21.6V120c0-29.6-16.5-46.2-37-46.2c-11,0-19.8,4.8-28.7,14.1l-1.4-12.8H25v94.4h21.4v-48.1
			c0-14.3,9-26.4,22.3-26.4C82.6,95,89.8,105.9,89.8,120.2z"/>
		<path class="st0" d="M193.2,169.5h20.4V75.3h-20.7l-0.7,13c-5-9.4-16.1-15.3-27.8-15.3c-25.5-0.2-45.5,16.8-45.5,49.3
			c0,33,19.1,50.2,45,50.1c9.7-0.2,23.4-5.5,28.3-16.6L193.2,169.5z M166.3,151c-14.3,0-25.9-10.7-25.9-28.7
			c0-18,11.5-28.5,25.9-28.5C200.3,93.9,200.3,151,166.3,151z"/>
		<path class="st0" d="M286.2,166.7l-6-19.9c-3.2,1.7-7.1,2.9-10.5,2.9c-6.7,0-11.3-4.4-11.3-13.4V95.6h24.3V75.5h-24.1V48.8
			L237,51.3v24.3h-16.3v20.1H237v40.7c0,23.5,12.4,35.2,31.4,34.4C274.9,170.5,280,169.3,286.2,166.7z"/>
		<rect x="293.5" y="75" class="st0" width="21.6" height="94.6"/>
		<path class="st0" d="M291.5,48.8c0,18.1,25.5,18.1,25.5,0C317,30.6,291.5,30.6,291.5,48.8z"/>
		<polygon class="st0" points="382.6,169.9 419.8,75.2 396.2,75.2 384.2,106.7 370.9,146 357.4,106.3 345.4,75.2 321.8,75.2 
			359.2,169.9 		"/>
		<path class="st0" d="M502.1,156.7L488.3,142c-5,5.5-15.4,8.8-23.4,8.8c-15.2,0-24.6-8.4-26-20.1h68.2
			c3.4-38.8-14.9-58.3-44.1-58.3c-28.3,0-46.4,20.6-46.4,49.3c0,30.2,17.9,50.2,48,50.2C477.9,172,492.9,167,502.1,156.7z
			 M463.7,93.1c12.4,0,21.3,6.1,22.7,18.3h-47.1C442.4,99.2,452,93.1,463.7,93.1z"/>
		<path class="st0" d="M608,45.1c2.3-8.5,0.4-12.3-3.2-12.1c-3.7,0.2-9.1,4.3-14.2,11.3c-0.6-0.3-1.9-0.9-2.6-1.2
			c8.3-15-1.7-10.1-4-13.4c-3.4,7.7-7.6,15.2-13.1,21.9c-0.9,1.9-2.7,5.8-3.6,7.7c-6.9,14.5-13.7,28.7-20.7,42.6
			c-6.7-11.6-13.8-22.9-21-32.5c-4.5-6-10.4-17.1-15-20l4.4,6.1c-5.3-5.4-7.8-11-12.7-16.8c-0.6,0.5-1.9-0.4-3.7-2.1
			c3.1,3.9,7.9,9.7,10.5,13.9l-0.9,0.7c-3.2-3.8-7.1-10.2-10.5-13.9c-0.3,0.2-0.6,0.1-0.9,0.4c-0.3,0.2-3.1-3.8-3.7-3.1
			c2.3,1.3,4.6,5.8,6.1,7.8c-0.3,0.2-0.9,0.7-1.2,0.9c-0.3,0.2-1.8-1.7-3.3-3.7c-0.6,0.5-2.7-1-1.5,1.2c1.5,1.9,3,3.9,4.5,5.8
			c-6.3-7.6-10.9-10.1-11.8-9.4c1.8,1.6,0.9,2.4,2.7,4c-1.4-1.2-2.7-2.5-3.9-3.4c-0.6-0.5-1.2-0.9-1.6-1.2c-0.1-0.1-0.2-0.1-0.3-0.2
			c0,0-0.1,0-0.1,0c0,0,0,0,0,0v0l-0.7,0.6l-0.2,0.2l-0.1,0.1h0c0,0,0,0,0,0l0,0c0,0,0,0,0,0.1c0.2,0.4,0.8,1.1,1.5,2
			c3.2,4,6.4,8.3,9.6,12.6c3.2,4.3,6.3,8.6,9.4,13c6.2,8.8,12.1,17.7,17.9,26.8c5.9,9.3,11.7,18.8,17.1,28.4c-0.7,1.3-1.4,2.7-2.1,4
			c-5.6,10.5-11.4,20.9-17.5,31c-6.1,10.1-12.6,20-19.6,29.4c9.2-12,17.5-24.4,25.3-37.2c5.1-8.4,10-17,14.7-25.9
			c0.4,0.8,0.9,1.6,1.3,2.4c-4.4,8.7-9.5,16.9-14.6,24.9c-8.3,12.8-17,25.2-25.1,38.4c-0.6-0.4-1.7-1.2-2.3-1.6
			c-6.5,8.6-13.5,16.9-21,23.5c-2.9,2.9-4.5,6.1-5.6,9.1c3-1.5,6.2-3.7,9.2-6.2c3.1-2.5,6.1-5.3,9-8.3c5.8-6,11.3-12.8,16.6-19.8
			c10.5-14.2,19.9-29.5,29.1-44.5c-7.2,12.9-15.3,27.9-24.6,39.3c-6.4,8.4-12.3,16.3-18.4,23.5c-3.1,3.6-6.2,7-9.5,10
			c-3.3,3-6.7,5.8-10.1,7.7c-0.8,0.4-1.5,0.8-2.3,1.1c-0.2,0.6-0.4,1.2-0.6,1.8c-0.2,0.6-0.4,1.1-0.5,1.6c-0.3,1.2-0.4,2.3-0.5,3.5
			c0,1.1,0.1,2.3,0.5,3.2c0.4,1,1.2,1.8,2.4,2.3c1.3,0.5,3,0.7,5.4,0.2c0.9-0.6,2.3-1.5,3.4-2.4c1.1-0.8,2-1.5,2-1.5
			c1.5,0.5,2.1,2,2.6,3.5c3.1-2.2,5.9-4.6,8.6-7c2.7-2.5,5.2-5,7.7-7.6c4.9-5.2,9.5-10.7,14-16.2c10.7-14.2,20.5-28.5,30.6-42.1
			c-9.9,14.2-19.8,28.4-30.6,42.1c-4.3,5.6-8.8,11.3-13.6,16.7c-4.9,5.4-10.1,10.8-16.2,15.5c0.6,1.6,1.6,2.8,5,1.3
			c2.5-0.8,6.6-4.5,10.4-8.9c3.9-4.4,7.5-9.4,10.6-12.7c8.8-8.8,16.4-19.1,23.6-29.5c7.1-10.3,13.7-20.7,20.4-30.5
			c8,17.3,14.8,35,19.2,53.2c2.4,10.2,4.1,20.5,4.5,30.6c0.4,10.2-0.5,20.2-3.1,29.7c-0.2,1.1-0.3,1.8-0.3,2.2
			c0,0.5,0.1,0.7,0.3,0.7c0.3,0.1,0.9-0.4,1.3-0.2c2.8-8.8,3.5-18,4.5-25c0.1-2.4,1.5,2.4,2.3,0.1c0.1-2.4,0.1-7.2,0-9.6
			c1.1-2.5,2.4,2.3,3.5-0.2c0.5-1.3,0.5-4.4,0.2-7.4c-0.2-3.1-0.6-6.2-0.4-7.5c-0.4-7.5,2.1,4.7,2.4,12.3c0.3-1.3,0.4,0,0.5,1.6
			c0.1,1.6,0.1,3.5,0.5,3.4c0.8,0,1.6,0,2.2-1.3c0.7-1.3,1.3-3.9,1.4-9.1c0.1-2.6,1.6-0.2,2.3-0.2c-1.5-15.7-5.3-31.5-10.4-46.6
			c-5.2-15.1-11.7-29.6-19-42.9c-0.3-0.6-0.6-1.1-0.9-1.7c5.1-9.3,9.6-18.9,13.9-28.5C589,86.2,602.6,64,608,45.1z"/>
		<path class="st0" d="M590.3,254.7c0.2-0.3,0.3-0.6,0.3-1c0-0.6-0.2-1-0.5-1.3c-0.4-0.3-0.9-0.4-1.7-0.4h-1.8v6h1v-2.4h0.9l1.4,2.4
			h1.1l-1.6-2.7C589.9,255.2,590.1,255,590.3,254.7z M588.4,254.8h-0.7v-1.9h0.7c0.4,0,0.7,0.1,0.9,0.2c0.2,0.1,0.3,0.4,0.3,0.7
			c0,0.3-0.1,0.5-0.3,0.7C589,254.7,588.8,254.8,588.4,254.8z"/>
		<path class="st0" d="M591.1,250.6c-0.8-0.4-1.6-0.7-2.5-0.7c-0.9,0-1.8,0.2-2.5,0.7c-0.8,0.5-1.4,1.1-1.9,1.9
			c-0.5,0.8-0.7,1.6-0.7,2.5c0,0.9,0.2,1.7,0.7,2.5c0.4,0.8,1.1,1.4,1.8,1.9c0.8,0.5,1.6,0.7,2.6,0.7c0.9,0,1.8-0.2,2.6-0.7
			c0.8-0.5,1.4-1.1,1.8-1.9c0.4-0.8,0.7-1.6,0.7-2.5c0-0.9-0.2-1.8-0.7-2.5C592.5,251.6,591.9,251,591.1,250.6z M592.3,257.2
			c-0.4,0.7-0.9,1.2-1.6,1.6c-0.7,0.4-1.4,0.6-2.2,0.6c-0.8,0-1.5-0.2-2.2-0.6c-0.7-0.4-1.2-0.9-1.6-1.6c-0.4-0.7-0.6-1.4-0.6-2.2
			c0-0.8,0.2-1.5,0.6-2.2c0.4-0.7,0.9-1.2,1.6-1.6c0.7-0.4,1.4-0.6,2.2-0.6c0.8,0,1.5,0.2,2.2,0.6c0.7,0.4,1.2,0.9,1.6,1.6
			c0.4,0.7,0.6,1.4,0.6,2.2C592.9,255.8,592.7,256.5,592.3,257.2z"/>
	</g>
	<g>
		<path class="st0" d="M48.1,211.6c0,0.7,0.1,1.1,0.3,1.4c0.2,0.3,0.5,0.4,1,0.4c0.2,0,0.3,0,0.6,0s0.5,0,0.7-0.1v3.7
			c-0.2,0.1-0.4,0.1-0.7,0.2c-0.3,0.1-0.6,0.1-0.9,0.2c-0.3,0.1-0.6,0.1-0.9,0.1c-0.3,0-0.6,0-0.8,0c-1.1,0-2-0.2-2.7-0.7
			s-1.2-1.2-1.4-2.3c-1.1,1-2.4,1.8-3.9,2.2s-3,0.7-4.5,0.7c-1.1,0-2.1-0.1-3.1-0.4c-1-0.3-1.9-0.7-2.6-1.3
			c-0.8-0.6-1.4-1.3-1.8-2.2c-0.5-0.9-0.7-1.9-0.7-3.1c0-1.5,0.3-2.7,0.8-3.7c0.5-0.9,1.3-1.7,2.2-2.2c0.9-0.5,1.9-0.9,3-1.1
			c1.1-0.2,2.2-0.4,3.3-0.5c1-0.2,1.9-0.3,2.8-0.4c0.9-0.1,1.6-0.2,2.3-0.4c0.7-0.2,1.2-0.5,1.6-0.9c0.4-0.4,0.6-1,0.6-1.8
			c0-0.7-0.2-1.2-0.5-1.7c-0.3-0.4-0.7-0.8-1.2-1c-0.5-0.2-1-0.4-1.6-0.5c-0.6-0.1-1.2-0.1-1.7-0.1c-1.5,0-2.7,0.3-3.7,0.9
			c-1,0.6-1.5,1.6-1.6,2.9h-5.3c0.1-1.6,0.5-2.9,1.1-3.9c0.7-1,1.5-1.9,2.5-2.5c1-0.6,2.2-1.1,3.4-1.3c1.3-0.2,2.6-0.4,3.9-0.4
			c1.2,0,2.4,0.1,3.5,0.4c1.2,0.3,2.2,0.7,3.1,1.2c0.9,0.6,1.7,1.3,2.2,2.2c0.6,0.9,0.8,2,0.8,3.3V211.6z M42.8,204.9
			c-0.8,0.5-1.8,0.9-3,1c-1.2,0.1-2.4,0.3-3.6,0.5c-0.6,0.1-1.1,0.2-1.6,0.4c-0.5,0.2-1,0.4-1.4,0.7c-0.4,0.3-0.7,0.7-1,1.2
			c-0.2,0.5-0.4,1.1-0.4,1.8c0,0.6,0.2,1.1,0.5,1.5c0.3,0.4,0.8,0.7,1.2,1c0.5,0.2,1,0.4,1.6,0.5c0.6,0.1,1.1,0.1,1.6,0.1
			c0.6,0,1.2-0.1,1.9-0.2c0.7-0.2,1.3-0.4,1.9-0.8c0.6-0.4,1.1-0.9,1.5-1.4c0.4-0.6,0.6-1.3,0.6-2.1V204.9z"/>
		<path class="st0" d="M65.7,183.6h8.2l9.2,26.2h0.1l9-26.2h8.1V217h-5.6v-25.8h-0.1L85.4,217h-4.8l-9.3-25.8h-0.1V217h-5.6V183.6z"
			/>
		<path class="st0" d="M115.9,217.6c-1.9,0-3.7-0.3-5.2-1c-1.5-0.6-2.8-1.5-3.8-2.6c-1-1.1-1.8-2.5-2.4-4s-0.8-3.3-0.8-5.2
			c0-1.8,0.3-3.5,0.8-5.1c0.5-1.6,1.3-2.9,2.4-4c1-1.1,2.3-2,3.8-2.6c1.5-0.6,3.2-1,5.2-1c1.9,0,3.7,0.3,5.2,1
			c1.5,0.6,2.8,1.5,3.8,2.6c1,1.1,1.8,2.5,2.4,4c0.5,1.6,0.8,3.3,0.8,5.1c0,1.9-0.3,3.6-0.8,5.2c-0.5,1.6-1.3,2.9-2.4,4
			c-1,1.1-2.3,2-3.8,2.6C119.5,217.3,117.8,217.6,115.9,217.6z M115.9,213.4c1.2,0,2.2-0.2,3.1-0.7s1.6-1.2,2.2-2
			c0.6-0.8,1-1.7,1.2-2.7c0.3-1,0.4-2.1,0.4-3.1c0-1-0.1-2.1-0.4-3.1c-0.3-1-0.7-1.9-1.2-2.7c-0.6-0.8-1.3-1.4-2.2-1.9
			c-0.9-0.5-1.9-0.7-3.1-0.7s-2.2,0.2-3.1,0.7c-0.9,0.5-1.6,1.1-2.2,1.9c-0.6,0.8-1,1.7-1.2,2.7c-0.3,1-0.4,2.1-0.4,3.1
			c0,1.1,0.1,2.1,0.4,3.1c0.3,1,0.7,1.9,1.2,2.7c0.6,0.8,1.3,1.5,2.2,2C113.7,213.2,114.7,213.4,115.9,213.4z"/>
		<path class="st0" d="M130.8,183.6h5.3v12.4h0.1c0.4-0.6,0.8-1.1,1.4-1.6c0.5-0.5,1.1-0.9,1.8-1.2c0.6-0.3,1.3-0.6,2-0.7
			c0.7-0.2,1.4-0.3,2.1-0.3c1.9,0,3.6,0.3,5,1c1.4,0.7,2.6,1.6,3.5,2.8c0.9,1.2,1.6,2.5,2.1,4.1s0.7,3.2,0.7,5
			c0,1.6-0.2,3.2-0.6,4.7c-0.4,1.5-1.1,2.9-1.9,4.1c-0.9,1.2-1.9,2.1-3.3,2.8c-1.3,0.7-2.9,1.1-4.6,1.1c-0.8,0-1.6-0.1-2.5-0.2
			c-0.8-0.1-1.6-0.3-2.4-0.6c-0.7-0.3-1.4-0.7-2-1.2c-0.6-0.5-1.1-1.2-1.5-2h-0.1v3.3h-5.1V183.6z M149.5,204.9
			c0-1.1-0.1-2.2-0.4-3.2c-0.3-1-0.7-1.9-1.3-2.7c-0.6-0.8-1.3-1.4-2.1-1.9c-0.8-0.5-1.8-0.7-2.9-0.7c-2.2,0-3.9,0.8-5.1,2.3
			c-1.1,1.6-1.7,3.6-1.7,6.2c0,1.2,0.1,2.4,0.4,3.4c0.3,1,0.7,1.9,1.3,2.7c0.6,0.7,1.3,1.3,2.1,1.8c0.8,0.4,1.8,0.7,2.9,0.7
			c1.2,0,2.2-0.2,3.1-0.7c0.8-0.5,1.5-1.1,2.1-1.9c0.5-0.8,0.9-1.7,1.2-2.7C149.3,207,149.5,206,149.5,204.9z"/>
		<path class="st0" d="M155,192.8h5.8l6.1,18.6h0.1l5.9-18.6h5.5l-8.7,24.2h-6L155,192.8z"/>
		<path class="st0" d="M180,183.6h5.3v5.1H180V183.6z M180,192.8h5.3V217H180V192.8z"/>
		<path class="st0" d="M193.3,209.2c0.2,1.6,0.7,2.7,1.8,3.3c1,0.6,2.3,0.9,3.7,0.9c0.5,0,1.1,0,1.7-0.1c0.6-0.1,1.2-0.2,1.8-0.4
			c0.6-0.2,1-0.5,1.4-1c0.4-0.4,0.5-1,0.5-1.7c0-0.7-0.3-1.2-0.7-1.7c-0.5-0.4-1.1-0.8-1.8-1.1c-0.7-0.3-1.6-0.5-2.5-0.7
			c-0.9-0.2-1.9-0.4-2.9-0.6c-1-0.2-2-0.5-2.9-0.8c-0.9-0.3-1.7-0.7-2.5-1.3c-0.7-0.5-1.3-1.2-1.8-2c-0.4-0.8-0.7-1.8-0.7-3.1
			c0-1.3,0.3-2.4,1-3.3c0.6-0.9,1.5-1.6,2.4-2.2c1-0.5,2.1-0.9,3.3-1.1c1.2-0.2,2.3-0.3,3.4-0.3c1.2,0,2.4,0.1,3.6,0.4
			c1.1,0.3,2.2,0.7,3.1,1.3c0.9,0.6,1.7,1.4,2.3,2.3c0.6,1,1,2.1,1.1,3.4h-5.6c-0.3-1.3-0.8-2.1-1.8-2.6c-0.9-0.4-2-0.7-3.2-0.7
			c-0.4,0-0.8,0-1.3,0.1c-0.5,0.1-1,0.2-1.5,0.4c-0.5,0.2-0.8,0.4-1.1,0.7c-0.3,0.3-0.5,0.8-0.5,1.3c0,0.7,0.2,1.2,0.7,1.6
			c0.5,0.4,1,0.7,1.8,1c0.7,0.3,1.6,0.5,2.5,0.7c0.9,0.2,1.9,0.4,2.9,0.6c1,0.2,1.9,0.5,2.9,0.8c0.9,0.3,1.8,0.7,2.5,1.3
			c0.7,0.5,1.3,1.2,1.8,2s0.7,1.8,0.7,3c0,1.4-0.3,2.7-1,3.7c-0.7,1-1.5,1.8-2.6,2.4c-1,0.6-2.2,1.1-3.5,1.4
			c-1.3,0.3-2.5,0.4-3.8,0.4c-1.5,0-2.9-0.2-4.2-0.5c-1.3-0.3-2.4-0.9-3.4-1.6c-1-0.7-1.7-1.6-2.2-2.6c-0.5-1-0.8-2.3-0.9-3.7H193.3
			z"/>
		<path class="st0" d="M209.3,192.8h4v-7.3h5.3v7.3h4.8v4h-4.8v12.9c0,0.6,0,1,0.1,1.5c0,0.4,0.2,0.7,0.3,1c0.2,0.3,0.4,0.5,0.8,0.6
			c0.3,0.1,0.8,0.2,1.4,0.2c0.4,0,0.7,0,1.1,0c0.4,0,0.7-0.1,1.1-0.2v4.1c-0.6,0.1-1.2,0.1-1.7,0.2c-0.6,0.1-1.1,0.1-1.7,0.1
			c-1.4,0-2.5-0.1-3.4-0.4c-0.9-0.3-1.5-0.7-2-1.2c-0.5-0.5-0.8-1.2-1-1.9c-0.2-0.8-0.3-1.7-0.3-2.7v-14.3h-4V192.8z"/>
		<path class="st0" d="M245.7,211.6c0,0.7,0.1,1.1,0.3,1.4c0.2,0.3,0.5,0.4,1,0.4c0.2,0,0.3,0,0.6,0s0.5,0,0.7-0.1v3.7
			c-0.2,0.1-0.4,0.1-0.7,0.2c-0.3,0.1-0.6,0.1-0.9,0.2c-0.3,0.1-0.6,0.1-0.9,0.1c-0.3,0-0.6,0-0.8,0c-1.1,0-2-0.2-2.7-0.7
			c-0.7-0.4-1.2-1.2-1.4-2.3c-1.1,1-2.4,1.8-3.9,2.2s-3,0.7-4.5,0.7c-1.1,0-2.1-0.1-3.1-0.4c-1-0.3-1.9-0.7-2.6-1.3
			c-0.8-0.6-1.4-1.3-1.8-2.2c-0.5-0.9-0.7-1.9-0.7-3.1c0-1.5,0.3-2.7,0.8-3.7c0.5-0.9,1.3-1.7,2.2-2.2c0.9-0.5,1.9-0.9,3-1.1
			c1.1-0.2,2.2-0.4,3.3-0.5c1-0.2,1.9-0.3,2.8-0.4c0.9-0.1,1.6-0.2,2.3-0.4c0.7-0.2,1.2-0.5,1.6-0.9c0.4-0.4,0.6-1,0.6-1.8
			c0-0.7-0.2-1.2-0.5-1.7c-0.3-0.4-0.7-0.8-1.2-1c-0.5-0.2-1-0.4-1.6-0.5c-0.6-0.1-1.2-0.1-1.7-0.1c-1.5,0-2.7,0.3-3.7,0.9
			c-1,0.6-1.5,1.6-1.6,2.9H225c0.1-1.6,0.5-2.9,1.1-3.9c0.7-1,1.5-1.9,2.5-2.5c1-0.6,2.2-1.1,3.4-1.3c1.3-0.2,2.6-0.4,3.9-0.4
			c1.2,0,2.4,0.1,3.5,0.4c1.2,0.3,2.2,0.7,3.1,1.2c0.9,0.6,1.7,1.3,2.2,2.2c0.6,0.9,0.8,2,0.8,3.3V211.6z M240.4,204.9
			c-0.8,0.5-1.8,0.9-3,1c-1.2,0.1-2.4,0.3-3.6,0.5c-0.6,0.1-1.1,0.2-1.6,0.4c-0.5,0.2-1,0.4-1.4,0.7c-0.4,0.3-0.7,0.7-1,1.2
			c-0.2,0.5-0.4,1.1-0.4,1.8c0,0.6,0.2,1.1,0.5,1.5c0.3,0.4,0.8,0.7,1.2,1c0.5,0.2,1,0.4,1.6,0.5c0.6,0.1,1.1,0.1,1.6,0.1
			c0.6,0,1.2-0.1,1.9-0.2c0.7-0.2,1.3-0.4,1.9-0.8c0.6-0.4,1.1-0.9,1.5-1.4c0.4-0.6,0.6-1.3,0.6-2.1V204.9z"/>
		<path class="st0" d="M278,200.9c-0.2-1.5-0.8-2.6-1.8-3.4c-1-0.8-2.2-1.1-3.7-1.1c-0.7,0-1.4,0.1-2.2,0.4
			c-0.8,0.2-1.5,0.7-2.2,1.3c-0.7,0.6-1.2,1.5-1.6,2.7c-0.4,1.1-0.7,2.6-0.7,4.5c0,1,0.1,2,0.4,3c0.2,1,0.6,1.9,1.1,2.7
			c0.5,0.8,1.2,1.4,2,1.9c0.8,0.5,1.8,0.7,3,0.7c1.6,0,2.8-0.5,3.9-1.5c1-1,1.6-2.3,1.9-4.1h5.3c-0.5,3.2-1.7,5.6-3.6,7.2
			c-1.9,1.7-4.4,2.5-7.5,2.5c-1.9,0-3.6-0.3-5-1c-1.5-0.6-2.7-1.5-3.7-2.6c-1-1.1-1.8-2.4-2.3-4c-0.5-1.5-0.8-3.2-0.8-5
			c0-1.8,0.2-3.5,0.7-5.1c0.5-1.6,1.2-3,2.2-4.1c1-1.2,2.2-2.1,3.7-2.8c1.5-0.7,3.2-1,5.2-1c1.4,0,2.7,0.2,4,0.5
			c1.3,0.4,2.4,0.9,3.4,1.6c1,0.7,1.8,1.6,2.4,2.7c0.6,1.1,1,2.4,1.1,3.9H278z"/>
		<path class="st0" d="M297.9,217.6c-1.9,0-3.7-0.3-5.2-1c-1.5-0.6-2.8-1.5-3.8-2.6c-1-1.1-1.8-2.5-2.4-4c-0.5-1.6-0.8-3.3-0.8-5.2
			c0-1.8,0.3-3.5,0.8-5.1c0.5-1.6,1.3-2.9,2.4-4c1-1.1,2.3-2,3.8-2.6c1.5-0.6,3.2-1,5.2-1c1.9,0,3.7,0.3,5.2,1
			c1.5,0.6,2.8,1.5,3.8,2.6c1,1.1,1.8,2.5,2.4,4c0.5,1.6,0.8,3.3,0.8,5.1c0,1.9-0.3,3.6-0.8,5.2c-0.5,1.6-1.3,2.9-2.4,4
			c-1,1.1-2.3,2-3.8,2.6C301.5,217.3,299.8,217.6,297.9,217.6z M297.9,213.4c1.2,0,2.2-0.2,3.1-0.7s1.6-1.2,2.2-2
			c0.6-0.8,1-1.7,1.2-2.7c0.3-1,0.4-2.1,0.4-3.1c0-1-0.1-2.1-0.4-3.1c-0.3-1-0.7-1.9-1.2-2.7c-0.6-0.8-1.3-1.4-2.2-1.9
			c-0.9-0.5-1.9-0.7-3.1-0.7s-2.2,0.2-3.1,0.7c-0.9,0.5-1.6,1.1-2.2,1.9c-0.6,0.8-1,1.7-1.2,2.7c-0.3,1-0.4,2.1-0.4,3.1
			c0,1.1,0.1,2.1,0.4,3.1c0.3,1,0.7,1.9,1.2,2.7c0.6,0.8,1.3,1.5,2.2,2C295.7,213.2,296.7,213.4,297.9,213.4z"/>
		<path class="st0" d="M313.6,192.8h5.1v3.4h0.1c0.4-0.6,0.8-1.1,1.3-1.6c0.5-0.5,1-0.9,1.6-1.3c0.6-0.3,1.2-0.6,2-0.8
			c0.7-0.2,1.6-0.3,2.6-0.3c1.5,0,2.8,0.3,4.1,1c1.3,0.7,2.2,1.7,2.7,3c0.9-1.2,2-2.2,3.1-3c1.2-0.7,2.7-1.1,4.4-1.1
			c2.6,0,4.6,0.6,6,1.9c1.4,1.2,2.1,3.3,2.1,6.3V217h-5.3v-14.1c0-1,0-1.8-0.1-2.6c-0.1-0.8-0.2-1.5-0.5-2.1c-0.3-0.6-0.7-1-1.3-1.3
			c-0.6-0.3-1.4-0.5-2.4-0.5c-1.8,0-3.1,0.6-3.9,1.7c-0.8,1.1-1.2,2.7-1.2,4.8V217h-5.3v-15.5c0-1.7-0.3-3-0.9-3.8
			c-0.6-0.9-1.7-1.3-3.3-1.3c-0.7,0-1.4,0.1-2,0.4c-0.6,0.3-1.2,0.7-1.7,1.2c-0.5,0.5-0.9,1.2-1.2,2c-0.3,0.8-0.4,1.7-0.4,2.7V217
			h-5.3V192.8z"/>
		<path class="st0" d="M353.6,192.8h5.1v3.3h0.1c0.7-1.4,1.8-2.4,3.1-3s2.8-0.9,4.4-0.9c1.9,0,3.6,0.3,5,1c1.4,0.7,2.6,1.6,3.5,2.8
			c0.9,1.2,1.6,2.5,2.1,4.1s0.7,3.2,0.7,5c0,1.6-0.2,3.2-0.6,4.7c-0.4,1.5-1.1,2.9-1.9,4.1c-0.9,1.2-1.9,2.1-3.3,2.8
			c-1.3,0.7-2.9,1.1-4.6,1.1c-0.8,0-1.6-0.1-2.3-0.2c-0.8-0.1-1.5-0.4-2.2-0.7c-0.7-0.3-1.4-0.7-2-1.2c-0.6-0.5-1.1-1.1-1.5-1.7
			h-0.1v12.1h-5.3V192.8z M372.2,204.9c0-1.1-0.1-2.2-0.4-3.2c-0.3-1-0.7-1.9-1.3-2.7c-0.6-0.8-1.3-1.4-2.1-1.9
			c-0.8-0.5-1.8-0.7-2.9-0.7c-2.2,0-3.9,0.8-5.1,2.3c-1.1,1.6-1.7,3.6-1.7,6.2c0,1.2,0.1,2.4,0.4,3.4c0.3,1,0.7,1.9,1.3,2.7
			c0.6,0.7,1.3,1.3,2.1,1.8c0.8,0.4,1.8,0.7,2.9,0.7c1.2,0,2.2-0.2,3.1-0.7c0.8-0.5,1.5-1.1,2.1-1.9c0.5-0.8,0.9-1.7,1.2-2.7
			C372.1,207,372.2,206,372.2,204.9z"/>
		<path class="st0" d="M401.4,211.6c0,0.7,0.1,1.1,0.3,1.4c0.2,0.3,0.5,0.4,1,0.4c0.2,0,0.3,0,0.6,0c0.2,0,0.5,0,0.7-0.1v3.7
			c-0.2,0.1-0.4,0.1-0.7,0.2c-0.3,0.1-0.6,0.1-0.9,0.2c-0.3,0.1-0.6,0.1-0.9,0.1c-0.3,0-0.6,0-0.8,0c-1.1,0-2-0.2-2.7-0.7
			c-0.7-0.4-1.2-1.2-1.4-2.3c-1.1,1-2.4,1.8-3.9,2.2s-3,0.7-4.5,0.7c-1.1,0-2.1-0.1-3.1-0.4c-1-0.3-1.9-0.7-2.6-1.3
			c-0.8-0.6-1.4-1.3-1.8-2.2c-0.5-0.9-0.7-1.9-0.7-3.1c0-1.5,0.3-2.7,0.8-3.7c0.5-0.9,1.3-1.7,2.2-2.2c0.9-0.5,1.9-0.9,3-1.1
			c1.1-0.2,2.2-0.4,3.3-0.5c1-0.2,1.9-0.3,2.8-0.4c0.9-0.1,1.6-0.2,2.3-0.4c0.7-0.2,1.2-0.5,1.6-0.9c0.4-0.4,0.6-1,0.6-1.8
			c0-0.7-0.2-1.2-0.5-1.7c-0.3-0.4-0.7-0.8-1.2-1c-0.5-0.2-1-0.4-1.6-0.5c-0.6-0.1-1.2-0.1-1.7-0.1c-1.5,0-2.7,0.3-3.7,0.9
			c-1,0.6-1.5,1.6-1.6,2.9h-5.3c0.1-1.6,0.5-2.9,1.1-3.9c0.7-1,1.5-1.9,2.5-2.5c1-0.6,2.2-1.1,3.4-1.3c1.3-0.2,2.6-0.4,3.9-0.4
			c1.2,0,2.4,0.1,3.5,0.4c1.2,0.3,2.2,0.7,3.1,1.2c0.9,0.6,1.7,1.3,2.2,2.2c0.6,0.9,0.8,2,0.8,3.3V211.6z M396,204.9
			c-0.8,0.5-1.8,0.9-3,1c-1.2,0.1-2.4,0.3-3.6,0.5c-0.6,0.1-1.1,0.2-1.6,0.4c-0.5,0.2-1,0.4-1.4,0.7c-0.4,0.3-0.7,0.7-1,1.2
			c-0.2,0.5-0.4,1.1-0.4,1.8c0,0.6,0.2,1.1,0.5,1.5c0.3,0.4,0.8,0.7,1.2,1c0.5,0.2,1,0.4,1.6,0.5c0.6,0.1,1.1,0.1,1.6,0.1
			c0.6,0,1.2-0.1,1.9-0.2c0.7-0.2,1.3-0.4,1.9-0.8c0.6-0.4,1.1-0.9,1.5-1.4c0.4-0.6,0.6-1.3,0.6-2.1V204.9z"/>
		<path class="st0" d="M406.2,192.8h5.1v3.6l0.1,0.1c0.8-1.3,1.9-2.4,3.2-3.2c1.3-0.8,2.8-1.1,4.4-1.1c2.7,0,4.7,0.7,6.3,2.1
			c1.5,1.4,2.3,3.4,2.3,6.2V217h-5.3v-15.2c-0.1-1.9-0.5-3.3-1.2-4.1c-0.7-0.9-1.9-1.3-3.5-1.3c-0.9,0-1.7,0.2-2.4,0.5
			c-0.7,0.3-1.3,0.8-1.8,1.4c-0.5,0.6-0.9,1.3-1.2,2c-0.3,0.8-0.4,1.6-0.4,2.5V217h-5.3V192.8z"/>
		<path class="st0" d="M429.5,192.8h5.9l6.3,18.1h0.1l6.1-18.1h5.6l-9.4,25.5c-0.4,1.1-0.9,2.1-1.3,3.1c-0.4,1-0.9,1.9-1.5,2.6
			c-0.6,0.8-1.4,1.4-2.3,1.8c-0.9,0.5-2.1,0.7-3.5,0.7c-1.2,0-2.5-0.1-3.7-0.3v-4.5c0.4,0.1,0.9,0.1,1.3,0.2
			c0.4,0.1,0.8,0.1,1.3,0.1c0.6,0,1.1-0.1,1.5-0.2c0.4-0.2,0.7-0.4,1-0.7c0.3-0.3,0.5-0.6,0.7-1.1c0.2-0.4,0.4-0.9,0.5-1.4l0.6-1.9
			L429.5,192.8z"/>
	</g>
</g>
</svg>
