<?xml version="1.0" encoding="utf-8"?>
<!-- Generator: Adobe Illustrator 21.0.0, SVG Export Plug-In . SVG Version: 6.00 Build 0)  -->
<svg version="1.1" id="图层_1" xmlns="http://www.w3.org/2000/svg" xmlns:xlink="http://www.w3.org/1999/xlink" x="0px" y="0px"
	 viewBox="0 0 2019.2 1212.5" style="enable-background:new 0 0 2019.2 1212.5;" xml:space="preserve">
<style type="text/css">
	.st0{fill:none;stroke:#666666;stroke-miterlimit:10;}
	.st1{fill:#999999;}
	.st2{fill:#B3B3B3;}
	.st3{fill:url(#XMLID_34_);}
	.st4{fill:#00DBFF;}
	.st5{fill:#FFFFFF;}
	.st6{font-family:'Helvetica-Bold';}
	.st7{font-size:21.4821px;}
	.st8{fill:none;stroke:#FFFFFF;stroke-linecap:round;stroke-miterlimit:10;}
</style>
<g>
	<line id="XMLID_30_" class="st0" x1="1973.2" y1="95" x2="102.9" y2="94.5"/>
	<g id="XMLID_4_">
		<polyline id="XMLID_5_" class="st0" points="1120.9,94.5 1120.9,759.8 1100.8,770.4 1100.8,902.9 1120.9,913.2 1120.9,1140 		"/>
		<polyline id="XMLID_6_" class="st0" points="1042.4,94.5 1042.4,993.1 1003.1,1022.9 1003.1,1088.5 1042.4,1099.5 1042.4,1140 		
			"/>
		<polyline id="XMLID_7_" class="st0" points="963.8,94.5 963.8,926.1 981,935.8 981,952.1 963.8,957.9 963.8,1140 		"/>
		<polyline id="XMLID_8_" class="st0" points="885.9,94.5 885.8,210.2 936,221.6 936,241.4 886.2,254.3 886.5,483.5 918.6,477.4 
			923.9,493.7 885.2,529.1 885.2,585.1 864.1,600.1 864.1,633.6 885.2,633.7 885.2,677.4 840.2,700.5 840.2,731.5 885.2,739.7 
			885.2,1140 		"/>
		<polyline id="XMLID_9_" class="st0" points="806.6,94.5 806.6,598.9 793.2,607.2 793.2,625 806.6,629.3 806.6,741.7 790.4,759.8 
			790.4,784.6 806.6,788.2 806.6,1140 		"/>
		<line id="XMLID_10_" class="st0" x1="729" y1="94.5" x2="729" y2="1140"/>
		<line id="XMLID_11_" class="st0" x1="650.4" y1="94.5" x2="650.4" y2="1140"/>
		<line id="XMLID_12_" class="st0" x1="571.9" y1="94.5" x2="571.9" y2="1140"/>
		<line id="XMLID_13_" class="st0" x1="493.3" y1="94.5" x2="493.3" y2="1140"/>
		<polyline id="XMLID_14_" class="st0" points="414.7,94.5 414.7,143.8 374.5,144 374.5,170.1 414.7,182.5 414.7,1140 		"/>
		<line id="XMLID_15_" class="st0" x1="336.1" y1="94.5" x2="336.1" y2="1140"/>
	</g>
	<polyline id="XMLID_16_" class="st0" points="259.9,95 259.9,146.2 323.1,161.3 323.1,190.2 259.9,215.7 259.9,1140.5 	"/>
	<line id="XMLID_17_" class="st0" x1="181.3" y1="95" x2="181.3" y2="1140.5"/>
	<polyline id="XMLID_18_" class="st0" points="103.7,95.2 103.7,289.2 48.6,304.8 48.6,353.9 103.7,374.7 103.7,412.4 86.8,420.6 
		86.3,453.6 103.7,456.8 103.7,555.2 41.3,577.1 42.2,616.7 49.5,617.8 52.9,809.1 103.7,826.3 103.7,918.8 75,932.3 74.6,970.6 
		103.7,981 103.7,1140.7 	"/>
	<polyline id="XMLID_19_" class="st0" points="1972.7,95.6 1972.7,491.9 1923.8,508.6 1923.8,541 1972.7,555 1972.7,635.5 
		1989,642.6 1989,677.3 1972.7,685 1972.7,1141.1 	"/>
	<line id="XMLID_20_" class="st0" x1="1895.4" y1="95.6" x2="1895.4" y2="1141.1"/>
	<line id="XMLID_21_" class="st0" x1="1820.8" y1="95.6" x2="1820.8" y2="1141.1"/>
	<g id="XMLID_367_">
		<line id="XMLID_22_" class="st0" x1="1747.6" y1="95.6" x2="1747.6" y2="1141.1"/>
		<line id="XMLID_23_" class="st0" x1="1669" y1="95.6" x2="1669" y2="1141.1"/>
		<line id="XMLID_24_" class="st0" x1="1590.4" y1="95.6" x2="1590.4" y2="1141.1"/>
		<line id="XMLID_25_" class="st0" x1="1511.9" y1="95.6" x2="1511.9" y2="1141.1"/>
		<line id="XMLID_26_" class="st0" x1="1434.2" y1="95.6" x2="1434.2" y2="1141.1"/>
		<polyline id="XMLID_27_" class="st0" points="1355.7,95.6 1355.7,816 1413.2,864.5 1413.2,911.7 1355.7,911.9 1355.7,1141.1 		"/>
		<polyline id="XMLID_28_" class="st0" points="1277.1,95.6 1277.1,594.4 1198.5,594.1 1198.5,628.9 1277.1,666 1277.1,712.4 
			1242.6,711.2 1242.6,732.6 1277.1,752.4 1277.1,1141.1 		"/>
		<line id="XMLID_29_" class="st0" x1="1198.5" y1="95.6" x2="1198.5" y2="1141.1"/>
	</g>
	<g>
		<path class="st1" d="M1922.9,73.5h6.6v2.4h-6.6V73.5z"/>
		<path class="st1" d="M1937.8,68.7h-4.4v-1.9c1.3,0,2.4-0.3,3.2-0.8c0.8-0.6,1.4-1.5,1.8-2.8h1.9v18.9h-1.2h-1.3V68.7z"/>
	</g>
	<g>
		<path class="st1" d="M1844.6,73.5h6.6v2.4h-6.6V73.5z"/>
		<path class="st1" d="M1865.9,68.8c0,1.4-0.4,2.5-1.1,3.4s-2,1.9-4,3c-2.1,1.2-3.6,2.2-4.4,3.2c-0.3,0.4-0.6,0.9-0.8,1.4h10.2v2.3
			H1853v0c0-2,0.5-3.6,1.5-4.9s2.8-2.6,5.6-4.1c1.3-0.7,2.2-1.4,2.7-2s0.7-1.4,0.7-2.4c0-1-0.4-1.8-1.1-2.5c-0.7-0.6-1.6-1-2.8-1
			c-1.2,0-2.1,0.4-2.8,1.2s-1,1.9-1.1,3.4h-2.3c0-2.1,0.5-3.7,1.7-4.9c1.1-1.2,2.7-1.8,4.8-1.8c1.7,0,3.2,0.5,4.3,1.6
			C1865.4,65.9,1865.9,67.2,1865.9,68.8z"/>
	</g>
	<g>
		<path class="st1" d="M1771.8,73.5h6.6v2.4h-6.6V73.5z"/>
		<path class="st1" d="M1790.5,68.4c0-0.9-0.3-1.6-1-2.2s-1.5-0.8-2.6-0.8c-1.1,0-2,0.3-2.6,1c-0.6,0.7-0.9,1.7-1,3.1h-2.3
			c0-2,0.5-3.5,1.6-4.6c1-1.1,2.5-1.6,4.4-1.6c1.8,0,3.2,0.4,4.3,1.3c1.1,0.9,1.6,2.1,1.6,3.5c0,1.5-0.6,2.6-1.7,3.5
			c-0.2,0.2-0.4,0.3-0.7,0.5c0.5,0.2,0.9,0.4,1.2,0.7c1.2,0.9,1.8,2.2,1.8,3.7c0,1.8-0.6,3.2-1.8,4.3c-1.2,1.1-2.8,1.7-4.7,1.7
			c-2.1,0-3.7-0.5-4.8-1.5s-1.7-2.6-1.8-4.7h2.5c0.1,1.5,0.5,2.5,1.2,3.2c0.6,0.6,1.6,1,3,1c1.2,0,2.1-0.3,2.9-1
			c0.7-0.7,1.1-1.5,1.1-2.6c0-1.1-0.4-2-1.1-2.6c-0.6-0.6-1.4-0.9-2.4-0.9c-0.4,0-0.9,0-1.3,0s-0.7,0-0.8,0.1v-2.1
			c0.2,0,0.5,0.1,0.9,0.1c0.4,0,0.8,0,1.2-0.1c0.8-0.1,1.4-0.3,1.8-0.7C1790.2,70.1,1790.5,69.3,1790.5,68.4z"/>
	</g>
	<g>
		<path class="st1" d="M1697.9,73.5h6.6v2.4h-6.6V73.5z"/>
		<path class="st1" d="M1706.3,77.6v-1.1v-1.1l8.7-12.1h1h1v12.3h2.7v2h-2.7v4.5h-2.4v-4.5H1706.3z M1714.7,75.6V67l-6,8.4l-0.1,0.2
			H1714.7z"/>
	</g>
	<g>
		<path class="st1" d="M1617.5,73.5h6.6v2.4h-6.6V73.5z"/>
		<path class="st1" d="M1639.1,76.1c0,1.9-0.6,3.5-1.8,4.7c-1.2,1.2-2.8,1.8-4.7,1.8c-1.9,0-3.4-0.5-4.5-1.4s-1.8-2.2-1.9-3.9h2.5
			c0.1,1,0.6,1.9,1.3,2.4c0.7,0.6,1.7,0.9,2.8,0.9c1.1,0,2.1-0.4,2.8-1.2s1.1-1.8,1.1-3.1c0-1.3-0.4-2.4-1.1-3.1
			c-0.8-0.8-1.8-1.2-3.1-1.2c-0.7,0-1.4,0.2-2,0.5c-0.7,0.3-1.1,0.8-1.5,1.3l-2-0.1l1.4-10.1h9.8v2.3h-8l-0.8,5.2l0.1-0.1
			c1-0.7,2.1-1.1,3.3-1.1c2,0,3.6,0.6,4.7,1.7C1638.5,72.7,1639.1,74.2,1639.1,76.1z"/>
	</g>
	<g>
		<path class="st1" d="M1538.2,73.5h6.6v2.4h-6.6V73.5z"/>
		<path class="st1" d="M1553.9,63.3c1.7,0,3,0.4,4,1.3c1,0.9,1.5,2.1,1.6,3.7h-2.3c-0.1-0.9-0.4-1.7-1-2.2s-1.3-0.8-2.2-0.8
			c-1.5,0-2.6,0.7-3.4,2.1c-0.7,1.2-1.1,2.8-1.1,4.9c1.2-1.5,2.7-2.2,4.5-2.2c1.8,0,3.2,0.6,4.3,1.7c1.1,1.1,1.6,2.7,1.6,4.5
			s-0.6,3.4-1.8,4.5s-2.7,1.7-4.7,1.7c-2.1,0-3.6-0.8-4.8-2.4s-1.7-3.9-1.7-6.8c0-3.3,0.6-5.8,1.8-7.5
			C1550,64.1,1551.7,63.3,1553.9,63.3z M1549.7,76.4c0,1.2,0.4,2.2,1.1,3s1.6,1.2,2.7,1.2c1.1,0,2-0.4,2.7-1.2s1.1-1.8,1.1-3
			s-0.4-2.2-1.1-3c-0.7-0.8-1.6-1.2-2.7-1.2c-1.1,0-2,0.4-2.8,1.2C1550.1,74.2,1549.7,75.2,1549.7,76.4z"/>
	</g>
	<g>
		<path class="st1" d="M1463.1,73.5h6.6v2.4h-6.6V73.5z"/>
		<path class="st1" d="M1474.6,82.1c0.6-3.2,1.6-6.1,2.9-8.8c1.3-2.6,2.9-5.1,4.9-7.4h-10.5v-2.3h13v1v1c-2.1,2.4-3.7,5-5,7.7
			c-1.3,2.7-2.2,5.6-2.7,8.7H1474.6z"/>
	</g>
	<g>
		<path class="st1" d="M1382.4,73.5h6.6v2.4h-6.6V73.5z"/>
		<path class="st1" d="M1400.9,72.1c0.5,0.2,1,0.5,1.4,0.9c1.2,1,1.8,2.2,1.8,3.8c0,1.8-0.6,3.2-1.8,4.3s-2.7,1.6-4.7,1.6
			c-1.9,0-3.5-0.5-4.7-1.6s-1.8-2.5-1.8-4.3c0-1.6,0.6-2.8,1.8-3.8c0.4-0.3,0.9-0.6,1.4-0.8c-0.3-0.2-0.6-0.4-0.9-0.6
			c-1.1-0.8-1.6-1.9-1.6-3.3c0-1.5,0.5-2.7,1.6-3.7c1.1-0.9,2.5-1.4,4.2-1.4s3.1,0.5,4.2,1.4c1.1,0.9,1.6,2.2,1.6,3.7
			c0,1.3-0.5,2.4-1.6,3.3C1401.5,71.8,1401.2,72,1400.9,72.1z M1397.6,73.2c-1.2,0-2.1,0.3-2.8,1s-1.1,1.6-1.1,2.6
			c0,1.1,0.4,1.9,1.1,2.6c0.7,0.7,1.7,1,2.8,1s2.1-0.3,2.8-1c0.7-0.7,1.1-1.6,1.1-2.6c0-1.1-0.4-2-1.1-2.6
			C1399.7,73.5,1398.8,73.2,1397.6,73.2z M1397.6,71.2c1,0,1.7-0.3,2.4-0.8s0.9-1.2,0.9-2.1c0-0.8-0.3-1.5-0.9-2.1
			c-0.6-0.5-1.4-0.8-2.4-0.8s-1.7,0.3-2.4,0.8c-0.6,0.5-0.9,1.2-0.9,2.1c0,0.8,0.3,1.5,0.9,2.1C1395.9,70.9,1396.6,71.2,1397.6,71.2
			z"/>
	</g>
	<g>
		<path class="st1" d="M1301.7,73.5h6.6v2.4h-6.6V73.5z"/>
		<path class="st1" d="M1316.4,82.6c-1.7,0-3-0.4-4-1.3c-1-0.9-1.5-2.1-1.6-3.7h2.3c0.1,1,0.4,1.7,1,2.2s1.3,0.8,2.3,0.8
			c1.4,0,2.5-0.8,3.3-2.4c0.6-1.2,0.9-2.7,1.1-4.7c-1.2,1.4-2.6,2.2-4.4,2.2c-1.7,0-3.2-0.6-4.2-1.7s-1.6-2.7-1.6-4.5
			s0.6-3.4,1.7-4.5c1.2-1.1,2.7-1.7,4.6-1.7c2,0,3.6,0.7,4.7,2.2c1.1,1.4,1.6,3.5,1.6,6.1c0,3.6-0.6,6.3-1.8,8.2
			C1320.3,81.7,1318.6,82.6,1316.4,82.6z M1320.5,69.5c0-1.2-0.3-2.2-1-3c-0.7-0.8-1.6-1.2-2.7-1.2s-2,0.4-2.7,1.2
			c-0.7,0.8-1,1.8-1,3s0.3,2.2,1,3c0.7,0.8,1.6,1.2,2.7,1.2s2-0.4,2.7-1.2C1320.2,71.7,1320.5,70.7,1320.5,69.5z"/>
	</g>
	<g>
		<path class="st1" d="M1219,73.5h6.6v2.4h-6.6V73.5z"/>
		<path class="st1" d="M1233.9,68.7h-4.4v-1.9c1.3,0,2.4-0.3,3.2-0.8c0.8-0.6,1.4-1.5,1.8-2.8h1.9v18.9h-1.2h-1.3V68.7z"/>
		<path class="st1" d="M1244.4,80.1c-1.1-1.7-1.7-4.1-1.7-7.2s0.6-5.5,1.7-7.2c1.1-1.7,2.7-2.5,4.8-2.5c2.1,0,3.7,0.8,4.8,2.5
			c1.1,1.7,1.7,4.1,1.7,7.2s-0.6,5.5-1.7,7.2c-1.1,1.7-2.7,2.5-4.8,2.5C1247.1,82.6,1245.5,81.8,1244.4,80.1z M1252.1,78.6
			c0.7-1.3,1-3.1,1-5.7c0-2.5-0.3-4.4-1-5.7c-0.7-1.3-1.7-1.9-3-1.9c-1.3,0-2.3,0.6-3,1.9c-0.7,1.3-1,3.2-1,5.7c0,2.5,0.3,4.4,1,5.7
			c0.7,1.3,1.6,1.9,3,1.9C1250.5,80.5,1251.5,79.9,1252.1,78.6z"/>
	</g>
	<g>
		<path class="st1" d="M1143,73.5h6.6v2.4h-6.6V73.5z"/>
		<path class="st1" d="M1157.8,68.7h-4.4v-1.9c1.3,0,2.4-0.3,3.2-0.8c0.8-0.6,1.4-1.5,1.8-2.8h1.9v18.9h-1.2h-1.3V68.7z"/>
		<path class="st1" d="M1172.8,68.7h-4.4v-1.9c1.3,0,2.4-0.3,3.2-0.8c0.8-0.6,1.4-1.5,1.8-2.8h1.9v18.9h-1.2h-1.3V68.7z"/>
	</g>
	<g>
		<path class="st1" d="M1066.6,76.4h-5.8v-2h5.8v-5.8h2v5.8h5.8v2h-5.8v5.8h-2V76.4z"/>
		<path class="st1" d="M1082.5,68.7h-4.4v-1.9c1.3,0,2.4-0.3,3.2-0.8c0.8-0.6,1.4-1.5,1.8-2.8h1.9v18.9h-1.2h-1.3V68.7z"/>
		<path class="st1" d="M1103.9,68.8c0,1.4-0.4,2.5-1.1,3.4s-2,1.9-4,3c-2.1,1.2-3.6,2.2-4.4,3.2c-0.3,0.4-0.6,0.9-0.8,1.4h10.2v2.3
			H1091v0c0-2,0.5-3.6,1.5-4.9s2.8-2.6,5.6-4.1c1.3-0.7,2.2-1.4,2.7-2s0.7-1.4,0.7-2.4c0-1-0.4-1.8-1.1-2.5c-0.7-0.6-1.6-1-2.8-1
			c-1.2,0-2.1,0.4-2.8,1.2s-1,1.9-1.1,3.4h-2.3c0-2.1,0.5-3.7,1.7-4.9c1.1-1.2,2.7-1.8,4.8-1.8c1.7,0,3.2,0.5,4.3,1.6
			C1103.4,65.9,1103.9,67.2,1103.9,68.8z"/>
	</g>
	<g>
		<path class="st1" d="M909.9,76.4h-5.8v-2h5.8v-5.8h2v5.8h5.8v2h-5.8v5.8h-2V76.4z"/>
		<path class="st1" d="M925.8,68.7h-4.4v-1.9c1.3,0,2.4-0.3,3.2-0.8c0.8-0.6,1.4-1.5,1.8-2.8h1.9v18.9h-1.2h-1.3V68.7z"/>
		<path class="st1" d="M936.3,80.1c-1.1-1.7-1.7-4.1-1.7-7.2s0.6-5.5,1.7-7.2c1.1-1.7,2.7-2.5,4.8-2.5c2.1,0,3.7,0.8,4.8,2.5
			c1.1,1.7,1.7,4.1,1.7,7.2s-0.6,5.5-1.7,7.2c-1.1,1.7-2.7,2.5-4.8,2.5C939,82.6,937.4,81.8,936.3,80.1z M944.1,78.6
			c0.7-1.3,1-3.1,1-5.7c0-2.5-0.3-4.4-1-5.7c-0.7-1.3-1.7-1.9-3-1.9c-1.3,0-2.3,0.6-3,1.9c-0.7,1.3-1,3.2-1,5.7c0,2.5,0.3,4.4,1,5.7
			c0.7,1.3,1.6,1.9,3,1.9C942.4,80.5,943.4,79.9,944.1,78.6z"/>
	</g>
	<g>
		<path class="st1" d="M839.8,76.4H834v-2h5.8v-5.8h2v5.8h5.8v2h-5.8v5.8h-2V76.4z"/>
		<path class="st1" d="M855.6,82.6c-1.7,0-3-0.4-4-1.3c-1-0.9-1.5-2.1-1.6-3.7h2.3c0.1,1,0.4,1.7,1,2.2s1.3,0.8,2.3,0.8
			c1.4,0,2.5-0.8,3.3-2.4c0.6-1.2,0.9-2.7,1.1-4.7c-1.2,1.4-2.6,2.2-4.4,2.2c-1.7,0-3.2-0.6-4.2-1.7s-1.6-2.7-1.6-4.5
			s0.6-3.4,1.7-4.5c1.2-1.1,2.7-1.7,4.6-1.7c2,0,3.6,0.7,4.7,2.2c1.1,1.4,1.6,3.5,1.6,6.1c0,3.6-0.6,6.3-1.8,8.2
			C859.5,81.7,857.8,82.6,855.6,82.6z M859.7,69.5c0-1.2-0.3-2.2-1-3c-0.7-0.8-1.6-1.2-2.7-1.2s-2,0.4-2.7,1.2c-0.7,0.8-1,1.8-1,3
			s0.3,2.2,1,3c0.7,0.8,1.6,1.2,2.7,1.2s2-0.4,2.7-1.2C859.3,71.7,859.7,70.7,859.7,69.5z"/>
	</g>
	<g>
		<path class="st1" d="M761.8,76.4H756v-2h5.8v-5.8h2v5.8h5.8v2h-5.8v5.8h-2V76.4z"/>
		<path class="st1" d="M781.3,72.1c0.5,0.2,1,0.5,1.4,0.9c1.2,1,1.8,2.2,1.8,3.8c0,1.8-0.6,3.2-1.8,4.3s-2.7,1.6-4.7,1.6
			c-1.9,0-3.5-0.5-4.7-1.6s-1.8-2.5-1.8-4.3c0-1.6,0.6-2.8,1.8-3.8c0.4-0.3,0.9-0.6,1.4-0.8c-0.3-0.2-0.6-0.4-0.9-0.6
			c-1.1-0.8-1.6-1.9-1.6-3.3c0-1.5,0.5-2.7,1.6-3.7c1.1-0.9,2.5-1.4,4.2-1.4s3.1,0.5,4.2,1.4c1.1,0.9,1.6,2.2,1.6,3.7
			c0,1.3-0.5,2.4-1.6,3.3C781.9,71.8,781.6,72,781.3,72.1z M778,73.2c-1.2,0-2.1,0.3-2.8,1s-1.1,1.6-1.1,2.6c0,1.1,0.4,1.9,1.1,2.6
			c0.7,0.7,1.7,1,2.8,1s2.1-0.3,2.8-1c0.7-0.7,1.1-1.6,1.1-2.6c0-1.1-0.4-2-1.1-2.6C780.1,73.5,779.2,73.2,778,73.2z M778,71.2
			c1,0,1.7-0.3,2.4-0.8s0.9-1.2,0.9-2.1c0-0.8-0.3-1.5-0.9-2.1c-0.6-0.5-1.4-0.8-2.4-0.8s-1.7,0.3-2.4,0.8c-0.6,0.5-0.9,1.2-0.9,2.1
			c0,0.8,0.3,1.5,0.9,2.1C776.3,70.9,777.1,71.2,778,71.2z"/>
	</g>
	<g>
		<path class="st1" d="M683.7,76.4h-5.8v-2h5.8v-5.8h2v5.8h5.8v2h-5.8v5.8h-2V76.4z"/>
		<path class="st1" d="M696.3,82.1c0.6-3.2,1.6-6.1,2.9-8.8c1.3-2.6,2.9-5.1,4.9-7.4h-10.5v-2.3h13v1v1c-2.1,2.4-3.7,5-5,7.7
			c-1.3,2.7-2.2,5.6-2.7,8.7H696.3z"/>
	</g>
	<g>
		<path class="st1" d="M605.7,76.4h-5.8v-2h5.8v-5.8h2v5.8h5.8v2h-5.8v5.8h-2V76.4z"/>
		<path class="st1" d="M622.5,63.3c1.7,0,3,0.4,4,1.3c1,0.9,1.5,2.1,1.6,3.7h-2.3c-0.1-0.9-0.4-1.7-1-2.2s-1.3-0.8-2.2-0.8
			c-1.5,0-2.6,0.7-3.4,2.1c-0.7,1.2-1.1,2.8-1.1,4.9c1.2-1.5,2.7-2.2,4.5-2.2c1.8,0,3.2,0.6,4.3,1.7c1.1,1.1,1.6,2.7,1.6,4.5
			s-0.6,3.4-1.8,4.5s-2.7,1.7-4.7,1.7c-2.1,0-3.6-0.8-4.8-2.4s-1.7-3.9-1.7-6.8c0-3.3,0.6-5.8,1.8-7.5
			C618.5,64.1,620.3,63.3,622.5,63.3z M618.3,76.4c0,1.2,0.4,2.2,1.1,3s1.6,1.2,2.7,1.2c1.1,0,2-0.4,2.7-1.2s1.1-1.8,1.1-3
			s-0.4-2.2-1.1-3c-0.7-0.8-1.6-1.2-2.7-1.2c-1.1,0-2,0.4-2.8,1.2C618.6,74.2,618.3,75.2,618.3,76.4z"/>
	</g>
	<g>
		<path class="st1" d="M527.6,76.4h-5.8v-2h5.8v-5.8h2v5.8h5.8v2h-5.8v5.8h-2V76.4z"/>
		<path class="st1" d="M550.2,76.1c0,1.9-0.6,3.5-1.8,4.7c-1.2,1.2-2.8,1.8-4.7,1.8c-1.9,0-3.4-0.5-4.5-1.4s-1.8-2.2-1.9-3.9h2.5
			c0.1,1,0.6,1.9,1.3,2.4c0.7,0.6,1.7,0.9,2.8,0.9c1.1,0,2.1-0.4,2.8-1.2s1.1-1.8,1.1-3.1c0-1.3-0.4-2.4-1.1-3.1
			c-0.8-0.8-1.8-1.2-3.1-1.2c-0.7,0-1.4,0.2-2,0.5c-0.7,0.3-1.1,0.8-1.5,1.3l-2-0.1l1.4-10.1h9.8v2.3h-8l-0.8,5.2l0.1-0.1
			c1-0.7,2.1-1.1,3.3-1.1c2,0,3.6,0.6,4.7,1.7C549.7,72.7,550.2,74.2,550.2,76.1z"/>
	</g>
	<g>
		<path class="st1" d="M449.6,76.4h-5.8v-2h5.8v-5.8h2v5.8h5.8v2h-5.8v5.8h-2V76.4z"/>
		<path class="st1" d="M459.1,77.6v-1.1v-1.1l8.7-12.1h1h1v12.3h2.7v2h-2.7v4.5h-2.4v-4.5H459.1z M467.4,75.6V67l-6,8.4l-0.1,0.2
			H467.4z"/>
	</g>
	<g>
		<path class="st1" d="M371.5,76.4h-5.8v-2h5.8v-5.8h2v5.8h5.8v2h-5.8v5.8h-2V76.4z"/>
		<path class="st1" d="M391.3,68.4c0-0.9-0.3-1.6-1-2.2s-1.5-0.8-2.6-0.8c-1.1,0-2,0.3-2.6,1c-0.6,0.7-0.9,1.7-1,3.1h-2.3
			c0-2,0.5-3.5,1.6-4.6c1-1.1,2.5-1.6,4.4-1.6c1.8,0,3.2,0.4,4.3,1.3c1.1,0.9,1.6,2.1,1.6,3.5c0,1.5-0.6,2.6-1.7,3.5
			c-0.2,0.2-0.4,0.3-0.7,0.5c0.5,0.2,0.9,0.4,1.2,0.7c1.2,0.9,1.8,2.2,1.8,3.7c0,1.8-0.6,3.2-1.8,4.3c-1.2,1.1-2.8,1.7-4.7,1.7
			c-2.1,0-3.7-0.5-4.8-1.5s-1.7-2.6-1.8-4.7h2.5c0.1,1.5,0.5,2.5,1.2,3.2c0.6,0.6,1.6,1,3,1c1.2,0,2.1-0.3,2.9-1
			c0.7-0.7,1.1-1.5,1.1-2.6c0-1.1-0.4-2-1.1-2.6c-0.6-0.6-1.4-0.9-2.4-0.9c-0.4,0-0.9,0-1.3,0s-0.7,0-0.8,0.1v-2.1
			c0.2,0,0.5,0.1,0.9,0.1c0.4,0,0.8,0,1.2-0.1c0.8-0.1,1.4-0.3,1.8-0.7C390.9,70.1,391.3,69.3,391.3,68.4z"/>
	</g>
	<g>
		<path class="st1" d="M293.5,76.4h-5.8v-2h5.8v-5.8h2v5.8h5.8v2h-5.8v5.8h-2V76.4z"/>
		<path class="st1" d="M315.9,68.8c0,1.4-0.4,2.5-1.1,3.4s-2,1.9-4,3c-2.1,1.2-3.6,2.2-4.4,3.2c-0.3,0.4-0.6,0.9-0.8,1.4h10.2v2.3
			H303v0c0-2,0.5-3.6,1.5-4.9s2.8-2.6,5.6-4.1c1.3-0.7,2.2-1.4,2.7-2s0.7-1.4,0.7-2.4c0-1-0.4-1.8-1.1-2.5c-0.7-0.6-1.6-1-2.8-1
			c-1.2,0-2.1,0.4-2.8,1.2s-1,1.9-1.1,3.4h-2.3c0-2.1,0.5-3.7,1.7-4.9c1.1-1.2,2.7-1.8,4.8-1.8c1.7,0,3.2,0.5,4.3,1.6
			C315.4,65.9,315.9,67.2,315.9,68.8z"/>
	</g>
	<g>
		<path class="st1" d="M208,76.4h-5.8v-2h5.8v-5.8h2v5.8h5.8v2H210v5.8h-2V76.4z"/>
		<path class="st1" d="M223.9,68.7h-4.4v-1.9c1.3,0,2.4-0.3,3.2-0.8c0.8-0.6,1.4-1.5,1.8-2.8h1.9v18.9h-1.2h-1.3V68.7z"/>
	</g>
	<g>
		<path class="st1" d="M137.8,80.1c-1.1-1.7-1.7-4.1-1.7-7.2s0.6-5.5,1.7-7.2c1.1-1.7,2.7-2.5,4.8-2.5c2.1,0,3.7,0.8,4.8,2.5
			c1.1,1.7,1.7,4.1,1.7,7.2s-0.6,5.5-1.7,7.2c-1.1,1.7-2.7,2.5-4.8,2.5C140.5,82.6,138.9,81.8,137.8,80.1z M145.5,78.6
			c0.7-1.3,1-3.1,1-5.7c0-2.5-0.3-4.4-1-5.7c-0.7-1.3-1.7-1.9-3-1.9c-1.3,0-2.3,0.6-3,1.9c-0.7,1.3-1,3.2-1,5.7c0,2.5,0.3,4.4,1,5.7
			c0.7,1.3,1.6,1.9,3,1.9C143.9,80.5,144.9,79.9,145.5,78.6z"/>
	</g>
	<g>
		<path class="st1" d="M989.7,76.4h-5.8v-2h5.8v-5.8h2v5.8h5.8v2h-5.8v5.8h-2V76.4z"/>
		<path class="st1" d="M1005.7,68.7h-4.4v-1.9c1.3,0,2.4-0.3,3.2-0.8c0.8-0.6,1.4-1.5,1.8-2.8h1.9v18.9h-1.2h-1.3V68.7z"/>
		<path class="st1" d="M1020.6,68.7h-4.4v-1.9c1.3,0,2.4-0.3,3.2-0.8c0.8-0.6,1.4-1.5,1.8-2.8h1.9v18.9h-1.2h-1.3V68.7z"/>
	</g>
	<line id="XMLID_3_" class="st0" x1="1973.4" y1="1140.5" x2="103.1" y2="1140"/>
	<g id="XMLID_613_">
		<line id="XMLID_435_" class="st2" x1="1704.8" y1="1119.5" x2="1704.8" y2="1119.5"/>
	</g>
	
		<radialGradient id="XMLID_34_" cx="1330.9252" cy="894.2561" r="0" gradientTransform="matrix(1 0 0 1.0761 0 178.4212)" gradientUnits="userSpaceOnUse">
		<stop  offset="0" style="stop-color:#0A233C"/>
		<stop  offset="0.3539" style="stop-color:#06152D"/>
		<stop  offset="1" style="stop-color:#000014"/>
	</radialGradient>
	<path id="XMLID_1021_" class="st3" d="M1330.9,1140.7"/>
	<g id="XMLID_548_">
		
			<image style="overflow:visible;" width="163" height="167" xlink:href="54FCAAB4.png"  transform="matrix(0.24 0 0 0.24 848.6365 769.1351)">
		</image>
		<g>
			<ellipse class="st4" cx="868" cy="789.1" rx="6.3" ry="6.7"/>
			<path class="st5" d="M868,783.3c2.9,0,5.3,2.6,5.3,5.7s-2.4,5.7-5.3,5.7s-5.3-2.6-5.3-5.7S865.1,783.3,868,783.3 M868,781.3
				c-4,0-7.3,3.5-7.3,7.7s3.3,7.7,7.3,7.7c4,0,7.3-3.5,7.3-7.7S872.1,781.3,868,781.3L868,781.3z"/>
		</g>
	</g>
	<g id="XMLID_575_">
		<text transform="matrix(0.9293 0 0 1 880.1251 761.8117)" class="st5 st6 st7">Jakarta</text>
	</g>
	<g id="XMLID_517_">
		<path id="XMLID_992_" class="st5" d="M730.8,624.8h0.8l1.3,3.3h0l1.3-3.3h0.8v4.3h-0.5v-3.6h0l-1.4,3.6h-0.4l-1.4-3.6h0v3.6h-0.5
			V624.8z"/>
		<path id="XMLID_987_" class="st5" d="M736.7,626.1c0.8,0,1.4,0.8,1.4,1.6c0,0.8-0.6,1.4-1.4,1.4c-0.8,0-1.4-0.7-1.4-1.5
			C735.2,626.8,735.9,626.1,736.7,626.1z M736.7,628.6c0.5,0,0.9-0.4,0.9-1s-0.3-1-0.9-1c-0.5,0-0.9,0.4-0.9,1
			S736.1,628.6,736.7,628.6z"/>
		<path id="XMLID_981_" class="st5" d="M738.4,624.8h0.5v1.8h0c0.2-0.3,0.6-0.5,0.9-0.5c0.8,0,1.4,0.7,1.4,1.5
			c0,0.9-0.5,1.5-1.4,1.5c-0.4,0-0.7-0.2-0.9-0.5h0v0.5h-0.5V624.8z M740.7,627.6c0-0.6-0.3-1-0.9-1c-0.5,0-0.9,0.4-0.9,1
			s0.3,1,0.9,1C740.3,628.6,740.7,628.2,740.7,627.6z"/>
		<path id="XMLID_952_" class="st5" d="M741.2,626.3h0.6l0.8,2.2l0.8-2.2h0.5l-1.1,2.9h-0.6L741.2,626.3z"/>
		<path id="XMLID_610_" class="st5" d="M744.4,624.8c0.2,0,0.4,0.2,0.4,0.4c0,0.2-0.2,0.4-0.4,0.4c-0.2,0-0.4-0.2-0.4-0.4
			C744,625,744.2,624.8,744.4,624.8z M744.2,626.3h0.5v2.9h-0.5V626.3z"/>
		<path id="XMLID_608_" class="st5" d="M746.6,626.9c-0.1-0.2-0.3-0.3-0.6-0.3c-0.2,0-0.4,0.1-0.4,0.3c0,0.3,0.5,0.4,0.7,0.5
			c0.4,0.1,0.8,0.3,0.8,0.8c0,0.7-0.6,0.9-1.1,0.9c-0.4,0-0.8-0.1-1-0.5l0.4-0.3c0.2,0.2,0.4,0.3,0.7,0.3c0.3,0,0.5-0.1,0.5-0.4
			c0-0.3-0.4-0.4-0.6-0.4c-0.4-0.1-0.8-0.3-0.8-0.8c0-0.6,0.5-0.9,1-0.9c0.4,0,0.7,0.1,0.9,0.5L746.6,626.9z"/>
		<path id="XMLID_574_" class="st5" d="M749,626.7h-0.7v1.3c0,0.3,0,0.7,0.4,0.7c0.1,0,0.3,0,0.4-0.1v0.5c-0.1,0.1-0.4,0.1-0.5,0.1
			c-0.8,0-0.8-0.5-0.8-1v-1.5h-0.6v-0.5h0.6v-0.8h0.5v0.8h0.7V626.7z"/>
		<path id="XMLID_538_" class="st5" d="M749.3,626.5c0.3-0.3,0.7-0.4,1.1-0.4c0.8,0,1.1,0.5,1.1,1v1.5c0,0.2,0,0.4,0,0.5h-0.5
			c0-0.1,0-0.3,0-0.4h0c-0.2,0.4-0.5,0.5-0.9,0.5c-0.5,0-0.9-0.3-0.9-0.9c0-0.7,0.7-1,1.5-1h0.4v-0.1c0-0.3-0.2-0.6-0.6-0.6
			c-0.4,0-0.6,0.2-0.8,0.3L749.3,626.5z M750.8,627.7c-0.5,0-1.1,0.1-1.1,0.6c0,0.3,0.2,0.5,0.6,0.5c0.6,0,0.8-0.5,0.8-0.8v-0.2
			H750.8z"/>
		<path id="XMLID_1_" class="st5" d="M751.8,628.7c0-0.2,0.2-0.4,0.4-0.4c0.2,0,0.4,0.2,0.4,0.4c0,0.2-0.2,0.4-0.4,0.4
			C752,629.1,751.8,629,751.8,628.7z"/>
	</g>
	<polyline id="XMLID_577_" class="st8" points="949.5,767.1 880.9,767.1 872.1,781.8 	"/>
</g>
</svg>
