<?xml version="1.0" encoding="utf-8"?>
<!-- Generator: Adobe Illustrator 21.0.0, SVG Export Plug-In . SVG Version: 6.00 Build 0)  -->
<svg version="1.1" id="图层_1" xmlns="http://www.w3.org/2000/svg" xmlns:xlink="http://www.w3.org/1999/xlink" x="0px" y="0px"
	 viewBox="0 0 2386.7 1397.8" style="enable-background:new 0 0 2386.7 1397.8;" xml:space="preserve">
<style type="text/css">
	.st0{fill:none;stroke:#666666;stroke-miterlimit:10;}
	.st1{fill:#999999;}
	.st2{fill:#B3B3B3;}
	.st3{fill:url(#XMLID_32_);}
	.st4{fill:#FFFFFF;}
</style>
<g>
	<line id="XMLID_30_" class="st0" x1="2339.5" y1="91.1" x2="112.9" y2="90.5"/>
	<g id="XMLID_4_">
		<polyline id="XMLID_5_" class="st0" points="1324.9,90.5 1324.9,882.5 1300.9,895.1 1300.9,1052.9 1324.9,1065.1 1324.9,1335.1 		
			"/>
		<polyline id="XMLID_6_" class="st0" points="1231.3,90.5 1231.3,1160.3 1184.6,1195.7 1184.6,1273.8 1231.3,1286.9 1231.3,1335.1 
					"/>
		<polyline id="XMLID_7_" class="st0" points="1137.8,90.5 1137.8,1080.5 1158.3,1092 1158.3,1111.5 1137.8,1118.4 1137.8,1335.1 		
			"/>
		<polyline id="XMLID_8_" class="st0" points="1045.1,90.5 1044.9,228.1 1104.7,241.7 1104.7,265.4 1045.4,280.7 1045.8,553.6 
			1084,546.3 1090.3,565.7 1044.2,607.9 1044.2,674.6 1019.1,692.4 1019.1,732.3 1044.2,732.3 1044.2,784.4 990.6,811.8 
			990.6,848.8 1044.2,858.6 1044.2,1335.1 		"/>
		<polyline id="XMLID_9_" class="st0" points="950.7,90.5 950.7,690.9 934.7,700.9 934.7,722 950.7,727.1 950.7,860.9 931.3,882.5 
			931.3,912 950.7,916.3 950.7,1335.1 		"/>
		<line id="XMLID_10_" class="st0" x1="858.3" y1="90.5" x2="858.3" y2="1335.1"/>
		<line id="XMLID_11_" class="st0" x1="764.7" y1="90.5" x2="764.7" y2="1335.1"/>
		<line id="XMLID_12_" class="st0" x1="671.2" y1="90.5" x2="671.2" y2="1335.1"/>
		<line id="XMLID_13_" class="st0" x1="577.7" y1="90.5" x2="577.7" y2="1335.1"/>
		<polyline id="XMLID_14_" class="st0" points="484.1,90.5 484.1,149.2 436.2,149.4 436.2,180.5 484.1,195.2 484.1,1335.1 		"/>
		<line id="XMLID_15_" class="st0" x1="390.6" y1="90.5" x2="390.6" y2="1335.1"/>
	</g>
	<polyline id="XMLID_16_" class="st0" points="299.8,91.1 299.8,152 375.1,169.9 375.1,204.4 299.8,234.7 299.8,1335.7 	"/>
	<line id="XMLID_17_" class="st0" x1="206.2" y1="91.1" x2="206.2" y2="1335.7"/>
	<polyline id="XMLID_18_" class="st0" points="113.8,91.3 113.8,322.2 48.2,340.8 48.2,399.2 113.8,424 113.8,468.9 93.7,478.6 
		93.2,518 113.8,521.8 113.8,638.9 39.6,665 40.6,712.2 49.4,713.4 53.4,941.2 113.8,961.6 113.8,1071.8 79.7,1087.9 79.2,1133.5 
		113.8,1145.8 113.8,1335.9 	"/>
	<polyline id="XMLID_19_" class="st0" points="2338.8,91.8 2338.8,563.5 2280.7,583.4 2280.7,622.1 2338.8,638.6 2338.8,734.5 
		2358.2,743 2358.2,784.2 2338.8,793.4 2338.8,1336.4 	"/>
	<line id="XMLID_20_" class="st0" x1="2246.9" y1="91.8" x2="2246.9" y2="1336.4"/>
	<line id="XMLID_21_" class="st0" x1="2158.1" y1="91.8" x2="2158.1" y2="1336.4"/>
	<g id="XMLID_367_">
		<line id="XMLID_22_" class="st0" x1="2070.9" y1="91.8" x2="2070.9" y2="1336.4"/>
		<line id="XMLID_23_" class="st0" x1="1977.3" y1="91.8" x2="1977.3" y2="1336.4"/>
		<line id="XMLID_24_" class="st0" x1="1883.8" y1="91.8" x2="1883.8" y2="1336.4"/>
		<line id="XMLID_25_" class="st0" x1="1790.3" y1="91.8" x2="1790.3" y2="1336.4"/>
		<line id="XMLID_26_" class="st0" x1="1697.8" y1="91.8" x2="1697.8" y2="1336.4"/>
		<polyline id="XMLID_27_" class="st0" points="1604.3,91.8 1604.3,949.4 1672.8,1007.1 1672.8,1063.4 1604.3,1063.6 1604.3,1336.4 
					"/>
		<polyline id="XMLID_28_" class="st0" points="1510.8,91.8 1510.8,685.6 1417.2,685.3 1417.2,726.7 1510.8,770.8 1510.8,826 
			1469.7,824.6 1469.7,850.1 1510.8,873.7 1510.8,1336.4 		"/>
		<line id="XMLID_29_" class="st0" x1="1417.2" y1="91.8" x2="1417.2" y2="1336.4"/>
	</g>
	<g>
		<path class="st1" d="M2279.6,65.4h7.8v2.9h-7.8V65.4z"/>
		<path class="st1" d="M2297.3,59.8h-5.3v-2.2c1.5,0,2.8-0.3,3.8-1c1-0.7,1.7-1.8,2.2-3.3h2.3v22.5h-1.5h-1.5V59.8z"/>
	</g>
	<g>
		<path class="st1" d="M2186.3,65.4h7.8v2.9h-7.8V65.4z"/>
		<path class="st1" d="M2211.8,59.9c0,1.7-0.4,3-1.3,4.1c-0.8,1.1-2.4,2.2-4.8,3.5c-2.5,1.4-4.3,2.7-5.2,3.8c-0.4,0.5-0.7,1.1-1,1.7
			h12.2v2.7h-15.4v0c0-2.4,0.6-4.3,1.8-5.8c1.2-1.5,3.4-3.1,6.6-4.9c1.6-0.9,2.6-1.7,3.2-2.4c0.6-0.7,0.9-1.7,0.9-2.8
			c0-1.2-0.4-2.2-1.3-2.9c-0.9-0.8-1.9-1.1-3.3-1.1c-1.4,0-2.5,0.5-3.3,1.4c-0.8,1-1.2,2.3-1.3,4.1h-2.7c0-2.5,0.6-4.4,2-5.8
			c1.4-1.4,3.3-2.1,5.7-2.1c2.1,0,3.8,0.6,5.1,1.9C2211.1,56.4,2211.8,57.9,2211.8,59.9z"/>
	</g>
	<g>
		<path class="st1" d="M2099.7,65.4h7.8v2.9h-7.8V65.4z"/>
		<path class="st1" d="M2121.9,59.4c0-1.1-0.4-1.9-1.2-2.6s-1.8-1-3.1-1c-1.3,0-2.3,0.4-3.1,1.2c-0.7,0.8-1.1,2-1.2,3.7h-2.7
			c0-2.3,0.6-4.2,1.8-5.5c1.2-1.3,3-1.9,5.2-1.9c2.1,0,3.9,0.5,5.2,1.6c1.3,1.1,2,2.5,2,4.2c0,1.7-0.7,3.1-2,4.2
			c-0.2,0.2-0.5,0.4-0.8,0.6c0.5,0.2,1,0.5,1.4,0.9c1.4,1.1,2.1,2.6,2.1,4.5c0,2.1-0.7,3.8-2.2,5.2c-1.5,1.3-3.3,2-5.6,2
			c-2.5,0-4.4-0.6-5.7-1.8c-1.3-1.2-2-3.1-2.1-5.6h2.9c0.2,1.7,0.6,3,1.4,3.8c0.8,0.8,1.9,1.1,3.5,1.1c1.4,0,2.5-0.4,3.4-1.2
			c0.9-0.8,1.3-1.8,1.3-3.1c0-1.3-0.4-2.3-1.3-3.1c-0.7-0.7-1.7-1-2.8-1.1c-0.5,0-1,0-1.5,0s-0.8,0-0.9,0.1v-2.4
			c0.2,0.1,0.6,0.1,1.1,0.1c0.5,0,1,0,1.4-0.1c0.9-0.1,1.6-0.4,2.2-0.9C2121.6,61.4,2121.9,60.5,2121.9,59.4z"/>
	</g>
	<g>
		<path class="st1" d="M2011.7,65.4h7.8v2.9h-7.8V65.4z"/>
		<path class="st1" d="M2021.8,70.3V69v-1.3l10.4-14.5h1.2h1.2v14.7h3.2v2.4h-3.2v5.4h-2.8v-5.4H2021.8z M2031.7,67.9V57.7l-7.2,10
			l-0.2,0.2H2031.7z"/>
	</g>
	<g>
		<path class="st1" d="M1916.1,65.4h7.8v2.9h-7.8V65.4z"/>
		<path class="st1" d="M1941.7,68.5c0,2.3-0.7,4.2-2.2,5.6c-1.4,1.5-3.3,2.2-5.5,2.2c-2.2,0-4-0.6-5.4-1.7s-2.1-2.7-2.3-4.6h2.9
			c0.2,1.2,0.7,2.2,1.5,2.9c0.9,0.7,2,1,3.4,1c1.3,0,2.5-0.5,3.3-1.4c0.9-0.9,1.3-2.2,1.3-3.6c0-1.6-0.4-2.8-1.3-3.7
			c-0.9-0.9-2.1-1.4-3.6-1.4c-0.8,0-1.6,0.2-2.4,0.6c-0.8,0.4-1.4,0.9-1.8,1.5l-2.4-0.2l1.6-12h11.6v2.7h-9.5l-1,6.1l0.1-0.1
			c1.2-0.9,2.5-1.3,3.9-1.3c2.4,0,4.2,0.7,5.6,2C1941,64.5,1941.7,66.3,1941.7,68.5z"/>
	</g>
	<g>
		<path class="st1" d="M1821.6,65.4h7.8v2.9h-7.8V65.4z"/>
		<path class="st1" d="M1840.3,53.3c2,0,3.5,0.5,4.7,1.6c1.2,1.1,1.8,2.5,1.9,4.4h-2.8c-0.1-1.1-0.5-2-1.2-2.6
			c-0.7-0.6-1.6-0.9-2.7-0.9c-1.7,0-3.1,0.8-4,2.5c-0.8,1.4-1.3,3.4-1.3,5.8c1.4-1.8,3.2-2.7,5.3-2.7c2.1,0,3.8,0.7,5.1,2.1
			c1.3,1.4,1.9,3.2,1.9,5.4s-0.7,4-2.1,5.4s-3.3,2-5.6,2c-2.5,0-4.3-0.9-5.7-2.8s-2-4.6-2-8.1c0-3.9,0.7-6.9,2.2-9
			C1835.6,54.3,1837.7,53.3,1840.3,53.3z M1835.3,68.9c0,1.4,0.4,2.6,1.3,3.5c0.8,0.9,1.9,1.4,3.3,1.4c1.3,0,2.4-0.5,3.3-1.4
			s1.3-2.1,1.3-3.5s-0.4-2.6-1.3-3.5c-0.8-0.9-1.9-1.4-3.3-1.4c-1.3,0-2.4,0.5-3.3,1.4C1835.7,66.3,1835.3,67.5,1835.3,68.9z"/>
	</g>
	<g>
		<path class="st1" d="M1732.2,65.4h7.8v2.9h-7.8V65.4z"/>
		<path class="st1" d="M1745.9,75.7c0.7-3.8,1.9-7.2,3.4-10.4c1.5-3.1,3.5-6,5.9-8.8h-12.5v-2.7h15.5V55v1.2
			c-2.5,2.9-4.4,5.9-5.9,9.1c-1.5,3.2-2.6,6.7-3.2,10.4H1745.9z"/>
	</g>
	<g>
		<path class="st1" d="M1636.1,65.4h7.8v2.9h-7.8V65.4z"/>
		<path class="st1" d="M1658.1,63.8c0.6,0.3,1.2,0.6,1.7,1c1.4,1.1,2.1,2.6,2.1,4.5c0,2.1-0.7,3.8-2.1,5.1c-1.4,1.3-3.3,1.9-5.6,1.9
			c-2.3,0-4.1-0.6-5.5-1.9c-1.4-1.3-2.1-3-2.1-5.1c0-1.9,0.7-3.4,2.1-4.5c0.5-0.4,1-0.7,1.6-1c-0.4-0.2-0.7-0.4-1.1-0.7
			c-1.3-1-1.9-2.3-1.9-3.9c0-1.8,0.6-3.3,1.9-4.4c1.3-1.1,2.9-1.7,5-1.7s3.7,0.6,5,1.7c1.3,1.1,1.9,2.6,1.9,4.4
			c0,1.6-0.6,2.9-1.9,3.9C1658.9,63.4,1658.5,63.7,1658.1,63.8z M1654.2,65.1c-1.4,0-2.5,0.4-3.4,1.2c-0.9,0.8-1.3,1.9-1.3,3.1
			c0,1.3,0.4,2.3,1.3,3.1c0.9,0.8,2,1.2,3.4,1.2s2.5-0.4,3.4-1.2c0.9-0.8,1.3-1.8,1.3-3.1c0-1.3-0.4-2.3-1.3-3.2
			C1656.7,65.5,1655.6,65.1,1654.2,65.1z M1654.2,62.7c1.1,0,2.1-0.3,2.8-1c0.7-0.6,1.1-1.5,1.1-2.5c0-1-0.4-1.8-1.1-2.5
			c-0.7-0.6-1.7-1-2.8-1c-1.1,0-2.1,0.3-2.8,1c-0.7,0.6-1.1,1.5-1.1,2.5c0,1,0.4,1.8,1.1,2.5C1652.2,62.4,1653.1,62.7,1654.2,62.7z"
			/>
	</g>
	<g>
		<path class="st1" d="M1540.1,65.4h7.8v2.9h-7.8V65.4z"/>
		<path class="st1" d="M1557.6,76.3c-2,0-3.6-0.5-4.7-1.6c-1.2-1.1-1.8-2.5-1.9-4.4h2.7c0.1,1.2,0.5,2,1.2,2.7s1.6,0.9,2.7,0.9
			c1.7,0,3-0.9,3.9-2.8c0.7-1.4,1.1-3.2,1.3-5.5c-1.4,1.7-3.1,2.6-5.2,2.6c-2.1,0-3.8-0.7-5-2.1c-1.3-1.4-1.9-3.2-1.9-5.4
			c0-2.2,0.7-4,2.1-5.4c1.4-1.4,3.2-2,5.5-2c2.4,0,4.3,0.9,5.6,2.6c1.3,1.7,2,4.1,2,7.3c0,4.2-0.7,7.5-2.1,9.8
			C1562.2,75.2,1560.2,76.3,1557.6,76.3z M1562.4,60.7c0-1.4-0.4-2.6-1.2-3.5c-0.8-0.9-1.9-1.4-3.2-1.4c-1.3,0-2.4,0.5-3.2,1.4
			c-0.8,0.9-1.2,2.1-1.2,3.5c0,1.4,0.4,2.6,1.2,3.5c0.8,0.9,1.9,1.4,3.2,1.4c1.3,0,2.4-0.5,3.2-1.4
			C1562,63.3,1562.4,62.2,1562.4,60.7z"/>
	</g>
	<g>
		<path class="st1" d="M1441.6,65.4h7.8v2.9h-7.8V65.4z"/>
		<path class="st1" d="M1459.3,59.8h-5.3v-2.2c1.5,0,2.8-0.3,3.8-1c1-0.7,1.7-1.8,2.2-3.3h2.3v22.5h-1.5h-1.5V59.8z"/>
		<path class="st1" d="M1471.8,73.3c-1.3-2-2-4.8-2-8.5c0-3.7,0.7-6.5,2-8.5c1.3-2,3.2-3,5.7-3c2.5,0,4.4,1,5.7,3c1.3,2,2,4.8,2,8.5
			c0,3.7-0.7,6.5-2,8.5c-1.3,2-3.2,3-5.7,3C1475,76.3,1473.1,75.3,1471.8,73.3z M1481,71.6c0.8-1.5,1.2-3.7,1.2-6.8
			c0-3-0.4-5.3-1.2-6.8c-0.8-1.5-2-2.3-3.6-2.3c-1.6,0-2.7,0.8-3.5,2.3c-0.8,1.5-1.2,3.8-1.2,6.8c0,3,0.4,5.3,1.2,6.8
			c0.8,1.5,2,2.2,3.5,2.2C1479.1,73.8,1480.2,73.1,1481,71.6z"/>
	</g>
	<g>
		<path class="st1" d="M1351.1,65.4h7.8v2.9h-7.8V65.4z"/>
		<path class="st1" d="M1368.8,59.8h-5.3v-2.2c1.5,0,2.8-0.3,3.8-1c1-0.7,1.7-1.8,2.2-3.3h2.3v22.5h-1.5h-1.5V59.8z"/>
		<path class="st1" d="M1386.6,59.8h-5.3v-2.2c1.5,0,2.8-0.3,3.8-1c1-0.7,1.7-1.8,2.2-3.3h2.3v22.5h-1.5h-1.5V59.8z"/>
	</g>
	<g>
		<path class="st1" d="M1260.2,68.9h-6.9v-2.4h6.9v-6.9h2.4v6.9h6.9v2.4h-6.9v6.9h-2.4V68.9z"/>
		<path class="st1" d="M1279.1,59.8h-5.3v-2.2c1.5,0,2.8-0.3,3.8-1c1-0.7,1.7-1.8,2.2-3.3h2.3v22.5h-1.5h-1.5V59.8z"/>
		<path class="st1" d="M1304.6,59.9c0,1.7-0.4,3-1.3,4.1s-2.4,2.2-4.8,3.5c-2.5,1.4-4.3,2.7-5.2,3.8c-0.4,0.5-0.7,1.1-1,1.7h12.2
			v2.7h-15.4v0c0-2.4,0.6-4.3,1.8-5.8c1.2-1.5,3.4-3.1,6.6-4.9c1.6-0.9,2.6-1.7,3.2-2.4c0.6-0.7,0.9-1.7,0.9-2.8
			c0-1.2-0.4-2.2-1.3-2.9c-0.9-0.8-1.9-1.1-3.3-1.1c-1.4,0-2.5,0.5-3.3,1.4c-0.8,1-1.2,2.3-1.3,4.1h-2.7c0-2.5,0.6-4.4,2-5.8
			c1.4-1.4,3.3-2.1,5.7-2.1c2.1,0,3.8,0.6,5.1,1.9C1304,56.4,1304.6,57.9,1304.6,59.9z"/>
	</g>
	<g>
		<path class="st1" d="M1073.6,68.9h-6.9v-2.4h6.9v-6.9h2.4v6.9h6.9v2.4h-6.9v6.9h-2.4V68.9z"/>
		<path class="st1" d="M1092.6,59.8h-5.3v-2.2c1.5,0,2.8-0.3,3.8-1c1-0.7,1.7-1.8,2.2-3.3h2.3v22.5h-1.5h-1.5V59.8z"/>
		<path class="st1" d="M1105,73.3c-1.3-2-2-4.8-2-8.5c0-3.7,0.7-6.5,2-8.5c1.3-2,3.2-3,5.7-3c2.5,0,4.4,1,5.7,3c1.3,2,2,4.8,2,8.5
			c0,3.7-0.7,6.5-2,8.5c-1.3,2-3.2,3-5.7,3C1108.3,76.3,1106.4,75.3,1105,73.3z M1114.3,71.6c0.8-1.5,1.2-3.7,1.2-6.8
			c0-3-0.4-5.3-1.2-6.8c-0.8-1.5-2-2.3-3.6-2.3c-1.6,0-2.7,0.8-3.5,2.3c-0.8,1.5-1.2,3.8-1.2,6.8c0,3,0.4,5.3,1.2,6.8
			c0.8,1.5,2,2.2,3.5,2.2C1112.3,73.8,1113.5,73.1,1114.3,71.6z"/>
	</g>
	<g>
		<path class="st1" d="M990.2,68.9h-6.9v-2.4h6.9v-6.9h2.4v6.9h6.9v2.4h-6.9v6.9h-2.4V68.9z"/>
		<path class="st1" d="M1009,76.3c-2,0-3.6-0.5-4.7-1.6c-1.2-1.1-1.8-2.5-1.9-4.4h2.7c0.1,1.2,0.5,2,1.2,2.7s1.6,0.9,2.7,0.9
			c1.7,0,3-0.9,3.9-2.8c0.7-1.4,1.1-3.2,1.3-5.5c-1.4,1.7-3.1,2.6-5.2,2.6c-2.1,0-3.8-0.7-5-2.1c-1.3-1.4-1.9-3.2-1.9-5.4
			c0-2.2,0.7-4,2.1-5.4c1.4-1.4,3.2-2,5.5-2c2.4,0,4.3,0.9,5.6,2.6c1.3,1.7,2,4.1,2,7.3c0,4.2-0.7,7.5-2.1,9.8
			C1013.6,75.2,1011.6,76.3,1009,76.3z M1013.8,60.7c0-1.4-0.4-2.6-1.2-3.5c-0.8-0.9-1.9-1.4-3.2-1.4c-1.3,0-2.4,0.5-3.2,1.4
			c-0.8,0.9-1.2,2.1-1.2,3.5c0,1.4,0.4,2.6,1.2,3.5c0.8,0.9,1.9,1.4,3.2,1.4c1.3,0,2.4-0.5,3.2-1.4
			C1013.4,63.3,1013.8,62.2,1013.8,60.7z"/>
	</g>
	<g>
		<path class="st1" d="M897.3,68.9h-6.9v-2.4h6.9v-6.9h2.4v6.9h6.9v2.4h-6.9v6.9h-2.4V68.9z"/>
		<path class="st1" d="M920.5,63.8c0.6,0.3,1.2,0.6,1.7,1c1.4,1.1,2.1,2.6,2.1,4.5c0,2.1-0.7,3.8-2.1,5.1c-1.4,1.3-3.3,1.9-5.6,1.9
			c-2.3,0-4.1-0.6-5.5-1.9c-1.4-1.3-2.1-3-2.1-5.1c0-1.9,0.7-3.4,2.1-4.5c0.5-0.4,1-0.7,1.6-1c-0.4-0.2-0.7-0.4-1.1-0.7
			c-1.3-1-1.9-2.3-1.9-3.9c0-1.8,0.6-3.3,1.9-4.4c1.3-1.1,2.9-1.7,5-1.7s3.7,0.6,5,1.7c1.3,1.1,1.9,2.6,1.9,4.4
			c0,1.6-0.6,2.9-1.9,3.9C921.3,63.4,920.9,63.7,920.5,63.8z M916.6,65.1c-1.4,0-2.5,0.4-3.4,1.2s-1.3,1.9-1.3,3.1
			c0,1.3,0.4,2.3,1.3,3.1c0.9,0.8,2,1.2,3.4,1.2c1.4,0,2.5-0.4,3.4-1.2c0.9-0.8,1.3-1.8,1.3-3.1c0-1.3-0.4-2.3-1.3-3.2
			C919.1,65.5,918,65.1,916.6,65.1z M916.6,62.7c1.1,0,2.1-0.3,2.8-1c0.7-0.6,1.1-1.5,1.1-2.5c0-1-0.4-1.8-1.1-2.5
			c-0.7-0.6-1.7-1-2.8-1s-2.1,0.3-2.8,1c-0.7,0.6-1.1,1.5-1.1,2.5c0,1,0.4,1.8,1.1,2.5C914.6,62.4,915.5,62.7,916.6,62.7z"/>
	</g>
	<g>
		<path class="st1" d="M804.4,68.9h-6.9v-2.4h6.9v-6.9h2.4v6.9h6.9v2.4h-6.9v6.9h-2.4V68.9z"/>
		<path class="st1" d="M819.3,75.7c0.7-3.8,1.9-7.2,3.4-10.4c1.5-3.1,3.5-6,5.9-8.8H816v-2.7h15.5V55v1.2c-2.5,2.9-4.4,5.9-5.9,9.1
			c-1.5,3.2-2.6,6.7-3.2,10.4H819.3z"/>
	</g>
	<g>
		<path class="st1" d="M711.5,68.9h-6.9v-2.4h6.9v-6.9h2.4v6.9h6.9v2.4h-6.9v6.9h-2.4V68.9z"/>
		<path class="st1" d="M731.4,53.3c2,0,3.5,0.5,4.7,1.6c1.2,1.1,1.8,2.5,1.9,4.4h-2.8c-0.1-1.1-0.5-2-1.2-2.6
			c-0.7-0.6-1.6-0.9-2.7-0.9c-1.7,0-3.1,0.8-4,2.5c-0.8,1.4-1.3,3.4-1.3,5.8c1.4-1.8,3.2-2.7,5.3-2.7c2.1,0,3.8,0.7,5.1,2.1
			c1.3,1.4,1.9,3.2,1.9,5.4s-0.7,4-2.1,5.4c-1.4,1.4-3.3,2-5.6,2c-2.5,0-4.3-0.9-5.7-2.8s-2-4.6-2-8.1c0-3.9,0.7-6.9,2.2-9
			C726.8,54.3,728.8,53.3,731.4,53.3z M726.4,68.9c0,1.4,0.4,2.6,1.3,3.5s1.9,1.4,3.3,1.4c1.3,0,2.4-0.5,3.3-1.4s1.3-2.1,1.3-3.5
			s-0.4-2.6-1.3-3.5c-0.8-0.9-1.9-1.4-3.3-1.4c-1.3,0-2.4,0.5-3.3,1.4C726.9,66.3,726.4,67.5,726.4,68.9z"/>
	</g>
	<g>
		<path class="st1" d="M618.5,68.9h-6.9v-2.4h6.9v-6.9h2.4v6.9h6.9v2.4h-6.9v6.9h-2.4V68.9z"/>
		<path class="st1" d="M645.5,68.5c0,2.3-0.7,4.2-2.2,5.6c-1.4,1.5-3.3,2.2-5.5,2.2c-2.2,0-4-0.6-5.4-1.7s-2.1-2.7-2.3-4.6h2.9
			c0.2,1.2,0.7,2.2,1.5,2.9c0.9,0.7,2,1,3.4,1c1.3,0,2.5-0.5,3.3-1.4c0.9-0.9,1.3-2.2,1.3-3.6c0-1.6-0.4-2.8-1.3-3.7
			c-0.9-0.9-2.1-1.4-3.6-1.4c-0.8,0-1.6,0.2-2.4,0.6c-0.8,0.4-1.4,0.9-1.8,1.5l-2.4-0.2l1.6-12h11.6v2.7h-9.5l-1,6.1l0.1-0.1
			c1.2-0.9,2.5-1.3,3.9-1.3c2.4,0,4.2,0.7,5.6,2C644.8,64.5,645.5,66.3,645.5,68.5z"/>
	</g>
	<g>
		<path class="st1" d="M525.6,68.9h-6.9v-2.4h6.9v-6.9h2.4v6.9h6.9v2.4H528v6.9h-2.4V68.9z"/>
		<path class="st1" d="M536.9,70.3V69v-1.3l10.4-14.5h1.2h1.2v14.7h3.2v2.4h-3.2v5.4h-2.8v-5.4H536.9z M546.8,67.9V57.7l-7.2,10
			l-0.2,0.2H546.8z"/>
	</g>
	<g>
		<path class="st1" d="M432.7,68.9h-6.9v-2.4h6.9v-6.9h2.4v6.9h6.9v2.4h-6.9v6.9h-2.4V68.9z"/>
		<path class="st1" d="M456.2,59.4c0-1.1-0.4-1.9-1.2-2.6s-1.8-1-3.1-1c-1.3,0-2.3,0.4-3.1,1.2c-0.7,0.8-1.1,2-1.2,3.7h-2.7
			c0-2.3,0.6-4.2,1.8-5.5c1.2-1.3,3-1.9,5.2-1.9c2.1,0,3.9,0.5,5.2,1.6c1.3,1.1,2,2.5,2,4.2c0,1.7-0.7,3.1-2,4.2
			c-0.2,0.2-0.5,0.4-0.8,0.6c0.5,0.2,1,0.5,1.4,0.9c1.4,1.1,2.1,2.6,2.1,4.5c0,2.1-0.7,3.8-2.2,5.2c-1.5,1.3-3.3,2-5.6,2
			c-2.5,0-4.4-0.6-5.7-1.8c-1.3-1.2-2-3.1-2.1-5.6h2.9c0.2,1.7,0.6,3,1.4,3.8c0.8,0.8,1.9,1.1,3.5,1.1c1.4,0,2.5-0.4,3.4-1.2
			c0.9-0.8,1.3-1.8,1.3-3.1c0-1.3-0.4-2.3-1.3-3.1c-0.7-0.7-1.7-1-2.8-1.1c-0.5,0-1,0-1.5,0c-0.5,0-0.8,0-0.9,0.1v-2.4
			c0.2,0.1,0.6,0.1,1.1,0.1c0.5,0,1,0,1.4-0.1c0.9-0.1,1.6-0.4,2.2-0.9C455.8,61.4,456.2,60.5,456.2,59.4z"/>
	</g>
	<g>
		<path class="st1" d="M339.8,68.9h-6.9v-2.4h6.9v-6.9h2.4v6.9h6.9v2.4h-6.9v6.9h-2.4V68.9z"/>
		<path class="st1" d="M366.5,59.9c0,1.7-0.4,3-1.3,4.1c-0.8,1.1-2.4,2.2-4.8,3.5c-2.5,1.4-4.3,2.7-5.2,3.8c-0.4,0.5-0.7,1.1-1,1.7
			h12.2v2.7h-15.4v0c0-2.4,0.6-4.3,1.8-5.8c1.2-1.5,3.4-3.1,6.6-4.9c1.6-0.9,2.6-1.7,3.2-2.4c0.6-0.7,0.9-1.7,0.9-2.8
			c0-1.2-0.4-2.2-1.3-2.9c-0.9-0.8-1.9-1.1-3.3-1.1c-1.4,0-2.5,0.5-3.3,1.4c-0.8,1-1.2,2.3-1.3,4.1h-2.7c0-2.5,0.6-4.4,2-5.8
			c1.4-1.4,3.3-2.1,5.7-2.1c2.1,0,3.8,0.6,5.1,1.9C365.8,56.4,366.5,57.9,366.5,59.9z"/>
	</g>
	<g>
		<path class="st1" d="M238,68.9h-6.9v-2.4h6.9v-6.9h2.4v6.9h6.9v2.4h-6.9v6.9H238V68.9z"/>
		<path class="st1" d="M257,59.8h-5.3v-2.2c1.5,0,2.8-0.3,3.8-1c1-0.7,1.7-1.8,2.2-3.3h2.3v22.5h-1.5H257V59.8z"/>
	</g>
	<g>
		<path class="st1" d="M154.4,73.3c-1.3-2-2-4.8-2-8.5c0-3.7,0.7-6.5,2-8.5c1.3-2,3.2-3,5.7-3c2.5,0,4.4,1,5.7,3c1.3,2,2,4.8,2,8.5
			c0,3.7-0.7,6.5-2,8.5c-1.3,2-3.2,3-5.7,3C157.6,76.3,155.7,75.3,154.4,73.3z M163.6,71.6c0.8-1.5,1.2-3.7,1.2-6.8
			c0-3-0.4-5.3-1.2-6.8c-0.8-1.5-2-2.3-3.6-2.3c-1.6,0-2.7,0.8-3.5,2.3c-0.8,1.5-1.2,3.8-1.2,6.8c0,3,0.4,5.3,1.2,6.8
			c0.8,1.5,2,2.2,3.5,2.2C161.7,73.8,162.8,73.1,163.6,71.6z"/>
	</g>
	<g>
		<path class="st1" d="M1168.7,68.9h-6.9v-2.4h6.9v-6.9h2.4v6.9h6.9v2.4h-6.9v6.9h-2.4V68.9z"/>
		<path class="st1" d="M1187.6,59.8h-5.3v-2.2c1.5,0,2.8-0.3,3.8-1c1-0.7,1.7-1.8,2.2-3.3h2.3v22.5h-1.5h-1.5V59.8z"/>
		<path class="st1" d="M1205.4,59.8h-5.3v-2.2c1.5,0,2.8-0.3,3.8-1c1-0.7,1.7-1.8,2.2-3.3h2.3v22.5h-1.5h-1.5V59.8z"/>
	</g>
	<line id="XMLID_3_" class="st0" x1="2339.7" y1="1335.7" x2="113.1" y2="1335.1"/>
	<g id="XMLID_613_">
		<line id="XMLID_435_" class="st2" x1="2019.9" y1="1310.7" x2="2019.9" y2="1310.7"/>
	</g>
	
		<radialGradient id="XMLID_32_" cx="1574.8461" cy="1082.2469" r="0" gradientTransform="matrix(1 0 0 1.0761 0 171.373)" gradientUnits="userSpaceOnUse">
		<stop  offset="0" style="stop-color:#0A233C"/>
		<stop  offset="0.3539" style="stop-color:#06152D"/>
		<stop  offset="1" style="stop-color:#000014"/>
	</radialGradient>
	<path id="XMLID_1021_" class="st3" d="M1574.8,1335.9"/>
	<g id="XMLID_517_">
		<path id="XMLID_992_" class="st4" d="M860.3,721.8h1l1.5,3.9h0l1.5-3.9h1v5.1h-0.6v-4.2h0l-1.6,4.2h-0.4l-1.6-4.2h0v4.2h-0.6
			V721.8z"/>
		<path id="XMLID_987_" class="st4" d="M867.4,723.3c1,0,1.7,1,1.7,2c0,1-0.7,1.7-1.7,1.7c-1,0-1.7-0.8-1.7-1.8
			C865.7,724.1,866.4,723.3,867.4,723.3z M867.4,726.3c0.6,0,1.1-0.5,1.1-1.2c0-0.7-0.4-1.2-1.1-1.2c-0.6,0-1.1,0.5-1.1,1.2
			C866.3,725.8,866.7,726.3,867.4,726.3z"/>
		<path id="XMLID_981_" class="st4" d="M869.4,721.8h0.6v2.1h0c0.2-0.4,0.7-0.6,1.1-0.6c1,0,1.6,0.8,1.6,1.8c0,1-0.6,1.8-1.6,1.8
			c-0.4,0-0.9-0.2-1.1-0.6h0v0.6h-0.6V721.8z M872.1,725.1c0-0.7-0.4-1.2-1.1-1.2s-1.1,0.5-1.1,1.2c0,0.7,0.4,1.2,1.1,1.2
			S872.1,725.8,872.1,725.1z"/>
		<path id="XMLID_952_" class="st4" d="M872.8,723.5h0.7l1,2.6l0.9-2.6h0.6l-1.3,3.4h-0.7L872.8,723.5z"/>
		<path id="XMLID_610_" class="st4" d="M876.6,721.8c0.2,0,0.4,0.2,0.4,0.5c0,0.3-0.2,0.5-0.4,0.5c-0.2,0-0.4-0.2-0.4-0.5
			C876.2,722,876.4,721.8,876.6,721.8z M876.3,723.5h0.6v3.4h-0.6V723.5z"/>
		<path id="XMLID_608_" class="st4" d="M879.2,724.3c-0.1-0.2-0.4-0.3-0.7-0.3c-0.3,0-0.5,0.1-0.5,0.4c0,0.4,0.5,0.5,0.8,0.5
			c0.5,0.1,0.9,0.4,0.9,1c0,0.8-0.7,1.1-1.3,1.1c-0.5,0-0.9-0.1-1.2-0.6l0.5-0.4c0.2,0.2,0.4,0.4,0.8,0.4c0.3,0,0.6-0.1,0.6-0.4
			c0-0.4-0.5-0.5-0.8-0.5c-0.5-0.1-1-0.3-1-1c0-0.7,0.6-1.1,1.2-1.1c0.4,0,0.9,0.2,1.1,0.6L879.2,724.3z"/>
		<path id="XMLID_574_" class="st4" d="M882.1,724h-0.9v1.6c0,0.4,0,0.8,0.5,0.8c0.1,0,0.3,0,0.4-0.1v0.6c-0.1,0.1-0.4,0.1-0.5,0.1
			c-0.9,0-1-0.6-1-1.2V724h-0.7v-0.6h0.7v-1h0.6v1h0.9V724z"/>
		<path id="XMLID_538_" class="st4" d="M882.5,723.8c0.3-0.3,0.8-0.5,1.3-0.5c0.9,0,1.3,0.6,1.3,1.1v1.8c0,0.2,0,0.4,0,0.6h-0.5
			c0-0.2,0-0.3,0-0.5h0c-0.3,0.4-0.6,0.6-1.1,0.6c-0.6,0-1.1-0.4-1.1-1c0-0.9,0.8-1.2,1.8-1.2h0.4v-0.1c0-0.4-0.2-0.7-0.8-0.7
			c-0.5,0-0.7,0.2-0.9,0.4L882.5,723.8z M884.2,725.2c-0.6,0-1.3,0.1-1.3,0.7c0,0.4,0.3,0.6,0.7,0.6c0.7,0,0.9-0.5,0.9-1v-0.2H884.2
			z"/>
		<path id="XMLID_1_" class="st4" d="M885.4,726.5c0-0.3,0.2-0.5,0.4-0.5c0.2,0,0.4,0.2,0.4,0.5c0,0.3-0.2,0.5-0.4,0.5
			C885.6,726.9,885.4,726.7,885.4,726.5z"/>
	</g>
</g>
</svg>
