<?xml version="1.0" encoding="utf-8"?>
<!-- Generator: Adobe Illustrator 21.0.0, SVG Export Plug-In . SVG Version: 6.00 Build 0)  -->
<svg version="1.1" id="图层_1" xmlns="http://www.w3.org/2000/svg" xmlns:xlink="http://www.w3.org/1999/xlink" x="0px" y="0px"
	 viewBox="0 0 2386.7 1397.8" style="enable-background:new 0 0 2386.7 1397.8;" xml:space="preserve">
<style type="text/css">
	.st0{fill:none;stroke:#666666;stroke-miterlimit:10;}
	.st1{fill:#999999;}
	.st2{fill:#B3B3B3;}
	.st3{fill:url(#XMLID_32_);}
	.st4{fill:#FFFFFF;}
</style>
<g>
	<line id="XMLID_30_" class="st0" x1="2357.1" y1="57.6" x2="83.8" y2="57"/>
	<g id="XMLID_4_">
		<polyline id="XMLID_5_" class="st0" points="1321.2,57 1321.2,900 1296.8,913.5 1296.8,1081.4 1321.2,1094.4 1321.2,1381.8 		"/>
		<polyline id="XMLID_6_" class="st0" points="1225.7,57 1225.7,1195.7 1178,1233.4 1178,1316.5 1225.7,1330.5 1225.7,1381.8 		"/>
		<polyline id="XMLID_7_" class="st0" points="1130.2,57 1130.2,1110.8 1151.2,1123 1151.2,1143.7 1130.2,1151.1 1130.2,1381.8 		
			"/>
		<polyline id="XMLID_8_" class="st0" points="1035.6,57 1035.4,203.5 1096.4,218 1096.4,243.2 1035.9,259.5 1036.3,549.9 
			1075.3,542.2 1081.7,562.8 1034.7,607.7 1034.7,678.7 1009.1,697.6 1009.1,740.1 1034.7,740.2 1034.7,795.6 980,824.8 980,864.1 
			1034.7,874.6 1034.7,1381.8 		"/>
		<polyline id="XMLID_9_" class="st0" points="939.2,57 939.2,696.1 922.9,706.7 922.9,729.2 939.2,734.7 939.2,877.1 919.4,900 
			919.4,931.5 939.2,936 939.2,1381.8 		"/>
		<line id="XMLID_10_" class="st0" x1="844.9" y1="57" x2="844.9" y2="1381.8"/>
		<line id="XMLID_11_" class="st0" x1="749.4" y1="57" x2="749.4" y2="1381.8"/>
		<line id="XMLID_12_" class="st0" x1="653.9" y1="57" x2="653.9" y2="1381.8"/>
		<line id="XMLID_13_" class="st0" x1="558.3" y1="57" x2="558.3" y2="1381.8"/>
		<polyline id="XMLID_14_" class="st0" points="462.8,57 462.8,119.5 413.9,119.7 413.9,152.8 462.8,168.5 462.8,1381.8 		"/>
		<line id="XMLID_15_" class="st0" x1="367.3" y1="57" x2="367.3" y2="1381.8"/>
	</g>
	<polyline id="XMLID_16_" class="st0" points="274.6,57.7 274.6,122.5 351.5,141.6 351.5,178.3 274.6,210.5 274.6,1382.4 	"/>
	<line id="XMLID_17_" class="st0" x1="179.1" y1="57.7" x2="179.1" y2="1382.4"/>
	<polyline id="XMLID_18_" class="st0" points="84.8,57.9 84.8,303.7 17.8,323.4 17.8,385.6 84.8,412 84.8,459.8 64.3,470.2 
		63.7,512 84.8,516.1 84.8,640.8 9,668.5 10,718.7 19,720.1 23.1,962.5 84.8,984.2 84.8,1101.5 50,1118.6 49.4,1167.2 84.8,1180.3 
		84.8,1382.6 	"/>
	<polyline id="XMLID_19_" class="st0" points="2356.4,58.4 2356.4,560.5 2297,581.7 2297,622.8 2356.4,640.4 2356.4,742.5 
		2376.2,751.5 2376.2,795.4 2356.4,805.2 2356.4,1383.1 	"/>
	<line id="XMLID_20_" class="st0" x1="2262.6" y1="58.4" x2="2262.6" y2="1383.1"/>
	<line id="XMLID_21_" class="st0" x1="2171.9" y1="58.4" x2="2171.9" y2="1383.1"/>
	<g id="XMLID_367_">
		<line id="XMLID_22_" class="st0" x1="2082.9" y1="58.4" x2="2082.9" y2="1383.1"/>
		<line id="XMLID_23_" class="st0" x1="1987.4" y1="58.4" x2="1987.4" y2="1383.1"/>
		<line id="XMLID_24_" class="st0" x1="1891.9" y1="58.4" x2="1891.9" y2="1383.1"/>
		<line id="XMLID_25_" class="st0" x1="1796.4" y1="58.4" x2="1796.4" y2="1383.1"/>
		<line id="XMLID_26_" class="st0" x1="1702" y1="58.4" x2="1702" y2="1383.1"/>
		<polyline id="XMLID_27_" class="st0" points="1606.5,58.4 1606.5,971.2 1676.4,1032.6 1676.4,1092.5 1606.5,1092.8 1606.5,1383.1 
					"/>
		<polyline id="XMLID_28_" class="st0" points="1511,58.4 1511,690.4 1415.5,690.1 1415.5,734.2 1511,781.1 1511,839.9 
			1469.1,838.4 1469.1,865.5 1511,890.7 1511,1383.1 		"/>
		<line id="XMLID_29_" class="st0" x1="1415.5" y1="58.4" x2="1415.5" y2="1383.1"/>
	</g>
	<g>
		<path class="st1" d="M2296,29.7h8v2.9h-8V29.7z"/>
		<path class="st1" d="M2314.1,24h-5.4v-2.3c1.6,0,2.9-0.3,3.9-1c1-0.7,1.7-1.8,2.2-3.3h2.3v22.9h-1.5h-1.5V24z"/>
	</g>
	<g>
		<path class="st1" d="M2200.7,29.7h8v2.9h-8V29.7z"/>
		<path class="st1" d="M2226.7,24.1c0,1.7-0.4,3.1-1.3,4.2s-2.5,2.3-4.9,3.6c-2.6,1.4-4.4,2.7-5.3,3.9c-0.4,0.5-0.7,1.1-1,1.7h12.5
			v2.8H2211v0c0-2.4,0.6-4.4,1.8-5.9c1.2-1.5,3.5-3.2,6.8-5c1.6-0.9,2.7-1.7,3.3-2.5c0.6-0.7,0.9-1.7,0.9-2.9c0-1.2-0.4-2.2-1.3-3
			c-0.9-0.8-2-1.2-3.3-1.2c-1.4,0-2.5,0.5-3.4,1.5c-0.8,1-1.2,2.4-1.3,4.1h-2.8c0-2.5,0.6-4.5,2-5.9c1.4-1.4,3.3-2.2,5.8-2.2
			c2.1,0,3.9,0.6,5.2,1.9C2226,20.5,2226.7,22.1,2226.7,24.1z"/>
	</g>
	<g>
		<path class="st1" d="M2112.3,29.7h8v2.9h-8V29.7z"/>
		<path class="st1" d="M2135,23.5c0-1.1-0.4-2-1.2-2.7s-1.9-1-3.2-1c-1.4,0-2.4,0.4-3.1,1.2c-0.7,0.8-1.1,2.1-1.2,3.7h-2.8
			c0-2.4,0.6-4.3,1.9-5.6c1.3-1.3,3-2,5.3-2c2.2,0,3.9,0.5,5.3,1.6c1.3,1.1,2,2.5,2,4.3c0,1.8-0.7,3.2-2,4.3
			c-0.3,0.2-0.5,0.4-0.8,0.6c0.6,0.2,1,0.5,1.5,0.9c1.4,1.1,2.1,2.6,2.1,4.6c0,2.1-0.7,3.9-2.2,5.3c-1.5,1.4-3.4,2-5.7,2
			c-2.6,0-4.5-0.6-5.8-1.9s-2-3.1-2.1-5.7h3c0.2,1.8,0.6,3.1,1.4,3.8c0.8,0.8,2,1.2,3.6,1.2c1.4,0,2.6-0.4,3.5-1.2
			c0.9-0.8,1.4-1.9,1.4-3.1c0-1.3-0.4-2.4-1.3-3.2c-0.7-0.7-1.7-1.1-2.9-1.1c-0.5,0-1.1,0-1.5,0s-0.8,0-1,0.1v-2.5
			c0.2,0.1,0.6,0.1,1.1,0.1c0.5,0,1,0,1.4-0.1c0.9-0.1,1.7-0.4,2.2-0.9C2134.6,25.6,2135,24.7,2135,23.5z"/>
	</g>
	<g>
		<path class="st1" d="M2022.5,29.7h8v2.9h-8V29.7z"/>
		<path class="st1" d="M2032.7,34.7v-1.3v-1.3l10.6-14.8h1.2h1.2v15h3.2v2.5h-3.2v5.5h-2.9v-5.5H2032.7z M2042.8,32.3V21.8
			l-7.3,10.2l-0.2,0.2H2042.8z"/>
	</g>
	<g>
		<path class="st1" d="M1924.8,29.7h8v2.9h-8V29.7z"/>
		<path class="st1" d="M1951,32.9c0,2.3-0.7,4.3-2.2,5.8c-1.5,1.5-3.4,2.2-5.7,2.2c-2.3,0-4.1-0.6-5.5-1.7c-1.4-1.1-2.2-2.7-2.3-4.7
			h3c0.2,1.3,0.7,2.3,1.5,3c0.9,0.7,2,1,3.4,1c1.4,0,2.5-0.5,3.4-1.4c0.9-1,1.3-2.2,1.3-3.7c0-1.6-0.5-2.9-1.4-3.8
			c-0.9-0.9-2.1-1.4-3.7-1.4c-0.8,0-1.7,0.2-2.4,0.6c-0.8,0.4-1.4,0.9-1.8,1.5l-2.4-0.2l1.7-12.2h11.9v2.8h-9.7l-1,6.3l0.1-0.1
			c1.3-0.9,2.6-1.3,4-1.3c2.4,0,4.3,0.7,5.8,2C1950.3,28.8,1951,30.6,1951,32.9z"/>
	</g>
	<g>
		<path class="st1" d="M1828.3,29.7h8v2.9h-8V29.7z"/>
		<path class="st1" d="M1847.4,17.3c2,0,3.6,0.5,4.8,1.6c1.2,1.1,1.8,2.6,1.9,4.5h-2.8c-0.1-1.1-0.5-2-1.2-2.6s-1.6-0.9-2.7-0.9
			c-1.8,0-3.1,0.8-4.1,2.5c-0.8,1.5-1.3,3.4-1.4,5.9c1.4-1.8,3.2-2.7,5.4-2.7c2.2,0,3.9,0.7,5.2,2.1c1.3,1.4,2,3.2,2,5.5
			c0,2.3-0.7,4.1-2.2,5.5c-1.4,1.4-3.3,2.1-5.7,2.1c-2.5,0-4.4-1-5.8-2.9c-1.4-1.9-2-4.7-2-8.3c0-4,0.7-7,2.2-9.2
			C1842.7,18.4,1844.8,17.3,1847.4,17.3z M1842.3,33.3c0,1.5,0.4,2.7,1.3,3.6c0.9,0.9,2,1.4,3.3,1.4c1.4,0,2.5-0.5,3.3-1.4
			c0.9-0.9,1.3-2.1,1.3-3.6c0-1.5-0.4-2.7-1.3-3.6c-0.9-0.9-2-1.4-3.3-1.4c-1.4,0-2.5,0.5-3.3,1.4
			C1842.8,30.6,1842.3,31.8,1842.3,33.3z"/>
	</g>
	<g>
		<path class="st1" d="M1737.1,29.7h8v2.9h-8V29.7z"/>
		<path class="st1" d="M1751.1,40.2c0.7-3.8,1.9-7.4,3.5-10.7c1.6-3.2,3.5-6.2,6-9h-12.8v-2.8h15.8V19v1.3c-2.5,3-4.5,6.1-6.1,9.3
			c-1.5,3.3-2.6,6.8-3.3,10.6H1751.1z"/>
	</g>
	<g>
		<path class="st1" d="M1639,29.7h8v2.9h-8V29.7z"/>
		<path class="st1" d="M1661.5,28.1c0.6,0.3,1.2,0.6,1.7,1c1.4,1.2,2.1,2.7,2.1,4.6c0,2.1-0.7,3.9-2.1,5.2s-3.3,2-5.7,2
			c-2.3,0-4.2-0.7-5.7-2c-1.4-1.3-2.1-3-2.1-5.2c0-1.9,0.7-3.4,2.2-4.6c0.5-0.4,1.1-0.7,1.7-1c-0.4-0.2-0.7-0.4-1.1-0.7
			c-1.3-1-1.9-2.3-1.9-4c0-1.8,0.6-3.3,1.9-4.5c1.3-1.1,3-1.7,5.1-1.7c2.1,0,3.8,0.6,5.1,1.7c1.3,1.1,1.9,2.6,1.9,4.5
			c0,1.6-0.6,3-1.9,4C1662.2,27.7,1661.9,27.9,1661.5,28.1z M1657.5,29.4c-1.4,0-2.5,0.4-3.4,1.2c-0.9,0.8-1.3,1.9-1.3,3.2
			c0,1.3,0.4,2.4,1.3,3.2c0.9,0.8,2,1.2,3.4,1.2c1.4,0,2.5-0.4,3.4-1.2c0.9-0.8,1.3-1.9,1.3-3.2c0-1.3-0.4-2.4-1.3-3.2
			C1660,29.8,1658.9,29.4,1657.5,29.4z M1657.5,26.9c1.2,0,2.1-0.3,2.9-1c0.7-0.7,1.1-1.5,1.1-2.5c0-1-0.4-1.9-1.1-2.5
			c-0.7-0.7-1.7-1-2.9-1c-1.2,0-2.1,0.3-2.9,1c-0.7,0.7-1.1,1.5-1.1,2.5c0,1,0.4,1.9,1.1,2.5C1655.4,26.6,1656.3,26.9,1657.5,26.9z"
			/>
	</g>
	<g>
		<path class="st1" d="M1540.9,29.7h8v2.9h-8V29.7z"/>
		<path class="st1" d="M1558.8,40.9c-2,0-3.6-0.5-4.8-1.6c-1.2-1.1-1.9-2.6-1.9-4.5h2.8c0.1,1.2,0.5,2.1,1.2,2.7
			c0.7,0.6,1.6,1,2.8,1c1.7,0,3-1,4-2.9c0.7-1.4,1.1-3.3,1.3-5.7c-1.4,1.8-3.2,2.6-5.3,2.6c-2.1,0-3.8-0.7-5.1-2.1s-2-3.2-2-5.5
			s0.7-4.1,2.1-5.5c1.4-1.4,3.3-2.1,5.6-2.1c2.5,0,4.4,0.9,5.7,2.6c1.3,1.7,2,4.2,2,7.4c0,4.3-0.7,7.6-2.2,10
			C1563.5,39.7,1561.5,40.9,1558.8,40.9z M1563.8,24.9c0-1.5-0.4-2.7-1.3-3.6c-0.8-0.9-1.9-1.4-3.2-1.4s-2.4,0.5-3.2,1.4
			c-0.8,0.9-1.3,2.1-1.3,3.6c0,1.5,0.4,2.7,1.3,3.6c0.8,0.9,1.9,1.4,3.2,1.4s2.4-0.5,3.2-1.4C1563.3,27.6,1563.8,26.4,1563.8,24.9z"
			/>
	</g>
	<g>
		<path class="st1" d="M1440.4,29.7h8v2.9h-8V29.7z"/>
		<path class="st1" d="M1458.5,24h-5.4v-2.3c1.6,0,2.9-0.3,3.9-1c1-0.7,1.7-1.8,2.2-3.3h2.3v22.9h-1.5h-1.5V24z"/>
		<path class="st1" d="M1471.2,37.8c-1.4-2-2-4.9-2-8.7s0.7-6.7,2-8.7c1.4-2,3.3-3.1,5.8-3.1c2.5,0,4.5,1,5.8,3.1c1.4,2,2,4.9,2,8.7
			s-0.7,6.7-2,8.7c-1.4,2-3.3,3.1-5.8,3.1C1474.5,40.9,1472.6,39.8,1471.2,37.8z M1480.7,36c0.8-1.5,1.2-3.8,1.2-6.9
			c0-3.1-0.4-5.4-1.2-6.9c-0.8-1.5-2-2.3-3.6-2.3c-1.6,0-2.8,0.8-3.6,2.3c-0.8,1.5-1.2,3.8-1.2,6.9c0,3.1,0.4,5.4,1.2,6.9
			c0.8,1.5,2,2.3,3.6,2.3C1478.6,38.3,1479.8,37.5,1480.7,36z"/>
	</g>
	<g>
		<path class="st1" d="M1348,29.7h8v2.9h-8V29.7z"/>
		<path class="st1" d="M1366.1,24h-5.4v-2.3c1.6,0,2.9-0.3,3.9-1c1-0.7,1.7-1.8,2.2-3.3h2.3v22.9h-1.5h-1.5V24z"/>
		<path class="st1" d="M1384.2,24h-5.4v-2.3c1.6,0,2.9-0.3,3.9-1c1-0.7,1.7-1.8,2.2-3.3h2.3v22.9h-1.5h-1.5V24z"/>
	</g>
	<g>
		<path class="st1" d="M1255.2,33.2h-7.1v-2.4h7.1v-7.1h2.4v7.1h7.1v2.4h-7.1v7.1h-2.4V33.2z"/>
		<path class="st1" d="M1274.5,24h-5.4v-2.3c1.6,0,2.9-0.3,3.9-1c1-0.7,1.7-1.8,2.2-3.3h2.3v22.9h-1.5h-1.5V24z"/>
		<path class="st1" d="M1300.6,24.1c0,1.7-0.4,3.1-1.3,4.2c-0.9,1.1-2.5,2.3-4.9,3.6c-2.6,1.4-4.4,2.7-5.3,3.9
			c-0.4,0.5-0.7,1.1-1,1.7h12.5v2.8h-15.7v0c0-2.4,0.6-4.4,1.8-5.9c1.2-1.5,3.5-3.2,6.8-5c1.6-0.9,2.7-1.7,3.3-2.5
			c0.6-0.7,0.9-1.7,0.9-2.9c0-1.2-0.4-2.2-1.3-3c-0.9-0.8-2-1.2-3.3-1.2c-1.4,0-2.5,0.5-3.4,1.5c-0.8,1-1.2,2.4-1.3,4.1h-2.8
			c0-2.5,0.6-4.5,2-5.9c1.4-1.4,3.3-2.2,5.8-2.2c2.1,0,3.9,0.6,5.2,1.9C1299.9,20.5,1300.6,22.1,1300.6,24.1z"/>
	</g>
	<g>
		<path class="st1" d="M1064.7,33.2h-7.1v-2.4h7.1v-7.1h2.4v7.1h7.1v2.4h-7.1v7.1h-2.4V33.2z"/>
		<path class="st1" d="M1084.1,24h-5.4v-2.3c1.6,0,2.9-0.3,3.9-1c1-0.7,1.7-1.8,2.2-3.3h2.3v22.9h-1.5h-1.5V24z"/>
		<path class="st1" d="M1096.8,37.8c-1.4-2-2-4.9-2-8.7s0.7-6.7,2-8.7c1.4-2,3.3-3.1,5.8-3.1c2.5,0,4.5,1,5.8,3.1c1.4,2,2,4.9,2,8.7
			s-0.7,6.7-2,8.7c-1.4,2-3.3,3.1-5.8,3.1C1100.1,40.9,1098.1,39.8,1096.8,37.8z M1106.2,36c0.8-1.5,1.2-3.8,1.2-6.9
			c0-3.1-0.4-5.4-1.2-6.9c-0.8-1.5-2-2.3-3.6-2.3c-1.6,0-2.8,0.8-3.6,2.3c-0.8,1.5-1.2,3.8-1.2,6.9c0,3.1,0.4,5.4,1.2,6.9
			c0.8,1.5,2,2.3,3.6,2.3C1104.2,38.3,1105.4,37.5,1106.2,36z"/>
	</g>
	<g>
		<path class="st1" d="M979.5,33.2h-7.1v-2.4h7.1v-7.1h2.4v7.1h7.1v2.4h-7.1v7.1h-2.4V33.2z"/>
		<path class="st1" d="M998.7,40.9c-2,0-3.6-0.5-4.8-1.6c-1.2-1.1-1.9-2.6-1.9-4.5h2.8c0.1,1.2,0.5,2.1,1.2,2.7c0.7,0.6,1.6,1,2.8,1
			c1.7,0,3-1,4-2.9c0.7-1.4,1.1-3.3,1.3-5.7c-1.4,1.8-3.2,2.6-5.3,2.6c-2.1,0-3.8-0.7-5.1-2.1c-1.3-1.4-2-3.2-2-5.5s0.7-4.1,2.1-5.5
			c1.4-1.4,3.3-2.1,5.6-2.1c2.5,0,4.4,0.9,5.7,2.6c1.3,1.7,2,4.2,2,7.4c0,4.3-0.7,7.6-2.2,10C1003.4,39.7,1001.3,40.9,998.7,40.9z
			 M1003.7,24.9c0-1.5-0.4-2.7-1.3-3.6c-0.8-0.9-1.9-1.4-3.2-1.4s-2.4,0.5-3.2,1.4c-0.8,0.9-1.3,2.1-1.3,3.6c0,1.5,0.4,2.7,1.3,3.6
			c0.8,0.9,1.9,1.4,3.2,1.4s2.4-0.5,3.2-1.4C1003.2,27.6,1003.7,26.4,1003.7,24.9z"/>
	</g>
	<g>
		<path class="st1" d="M884.7,33.2h-7.1v-2.4h7.1v-7.1h2.4v7.1h7.1v2.4h-7.1v7.1h-2.4V33.2z"/>
		<path class="st1" d="M908.4,28.1c0.6,0.3,1.2,0.6,1.7,1c1.4,1.2,2.1,2.7,2.1,4.6c0,2.1-0.7,3.9-2.1,5.2c-1.4,1.3-3.3,2-5.7,2
			c-2.3,0-4.2-0.7-5.7-2c-1.4-1.3-2.1-3-2.1-5.2c0-1.9,0.7-3.4,2.2-4.6c0.5-0.4,1.1-0.7,1.7-1c-0.4-0.2-0.7-0.4-1.1-0.7
			c-1.3-1-1.9-2.3-1.9-4c0-1.8,0.6-3.3,1.9-4.5c1.3-1.1,3-1.7,5.1-1.7s3.8,0.6,5.1,1.7c1.3,1.1,1.9,2.6,1.9,4.5c0,1.6-0.6,3-1.9,4
			C909.2,27.7,908.8,27.9,908.4,28.1z M904.4,29.4c-1.4,0-2.5,0.4-3.4,1.2c-0.9,0.8-1.3,1.9-1.3,3.2c0,1.3,0.4,2.4,1.3,3.2
			c0.9,0.8,2,1.2,3.4,1.2s2.5-0.4,3.4-1.2c0.9-0.8,1.3-1.9,1.3-3.2c0-1.3-0.4-2.4-1.3-3.2C907,29.8,905.8,29.4,904.4,29.4z
			 M904.4,26.9c1.2,0,2.1-0.3,2.9-1c0.7-0.7,1.1-1.5,1.1-2.5c0-1-0.4-1.9-1.1-2.5c-0.7-0.7-1.7-1-2.9-1s-2.1,0.3-2.9,1
			c-0.7,0.7-1.1,1.5-1.1,2.5c0,1,0.4,1.9,1.1,2.5C902.3,26.6,903.3,26.9,904.4,26.9z"/>
	</g>
	<g>
		<path class="st1" d="M789.8,33.2h-7.1v-2.4h7.1v-7.1h2.4v7.1h7.1v2.4h-7.1v7.1h-2.4V33.2z"/>
		<path class="st1" d="M805,40.2c0.7-3.8,1.9-7.4,3.5-10.7c1.6-3.2,3.5-6.2,6-9h-12.8v-2.8h15.8V19v1.3c-2.5,3-4.5,6.1-6.1,9.3
			c-1.5,3.3-2.6,6.8-3.3,10.6H805z"/>
	</g>
	<g>
		<path class="st1" d="M694.9,33.2h-7.1v-2.4h7.1v-7.1h2.4v7.1h7.1v2.4h-7.1v7.1h-2.4V33.2z"/>
		<path class="st1" d="M715.4,17.3c2,0,3.6,0.5,4.8,1.6c1.2,1.1,1.8,2.6,1.9,4.5h-2.8c-0.1-1.1-0.5-2-1.2-2.6
			c-0.7-0.6-1.6-0.9-2.7-0.9c-1.8,0-3.1,0.8-4.1,2.5c-0.8,1.5-1.3,3.4-1.4,5.9c1.4-1.8,3.2-2.7,5.4-2.7c2.2,0,3.9,0.7,5.2,2.1
			c1.3,1.4,2,3.2,2,5.5c0,2.3-0.7,4.1-2.2,5.5c-1.4,1.4-3.3,2.1-5.7,2.1c-2.5,0-4.4-1-5.8-2.9c-1.4-1.9-2-4.7-2-8.3
			c0-4,0.7-7,2.2-9.2C710.6,18.4,712.7,17.3,715.4,17.3z M710.3,33.3c0,1.5,0.4,2.7,1.3,3.6c0.9,0.9,2,1.4,3.3,1.4
			c1.4,0,2.5-0.5,3.3-1.4c0.9-0.9,1.3-2.1,1.3-3.6c0-1.5-0.4-2.7-1.3-3.6c-0.9-0.9-2-1.4-3.3-1.4c-1.4,0-2.5,0.5-3.3,1.4
			C710.7,30.6,710.3,31.8,710.3,33.3z"/>
	</g>
	<g>
		<path class="st1" d="M600.1,33.2H593v-2.4h7.1v-7.1h2.4v7.1h7.1v2.4h-7.1v7.1h-2.4V33.2z"/>
		<path class="st1" d="M627.6,32.9c0,2.3-0.7,4.3-2.2,5.8c-1.5,1.5-3.4,2.2-5.7,2.2c-2.3,0-4.1-0.6-5.5-1.7
			c-1.4-1.1-2.2-2.7-2.3-4.7h3c0.2,1.3,0.7,2.3,1.5,3c0.9,0.7,2,1,3.4,1c1.4,0,2.5-0.5,3.4-1.4c0.9-1,1.3-2.2,1.3-3.7
			c0-1.6-0.5-2.9-1.4-3.8c-0.9-0.9-2.1-1.4-3.7-1.4c-0.8,0-1.7,0.2-2.4,0.6c-0.8,0.4-1.4,0.9-1.8,1.5l-2.4-0.2l1.7-12.2h11.9v2.8
			h-9.7l-1,6.3l0.1-0.1c1.3-0.9,2.6-1.3,4-1.3c2.4,0,4.3,0.7,5.8,2C626.9,28.8,627.6,30.6,627.6,32.9z"/>
	</g>
	<g>
		<path class="st1" d="M505.2,33.2h-7.1v-2.4h7.1v-7.1h2.4v7.1h7.1v2.4h-7.1v7.1h-2.4V33.2z"/>
		<path class="st1" d="M516.8,34.7v-1.3v-1.3l10.6-14.8h1.2h1.2v15h3.2v2.5h-3.2v5.5h-2.9v-5.5H516.8z M526.9,32.3V21.8l-7.3,10.2
			l-0.2,0.2H526.9z"/>
	</g>
	<g>
		<path class="st1" d="M410.4,33.2h-7.1v-2.4h7.1v-7.1h2.4v7.1h7.1v2.4h-7.1v7.1h-2.4V33.2z"/>
		<path class="st1" d="M434.3,23.5c0-1.1-0.4-2-1.2-2.7c-0.8-0.7-1.9-1-3.2-1c-1.4,0-2.4,0.4-3.1,1.2c-0.7,0.8-1.1,2.1-1.2,3.7h-2.8
			c0-2.4,0.6-4.3,1.9-5.6c1.3-1.3,3-2,5.3-2c2.2,0,3.9,0.5,5.3,1.6c1.3,1.1,2,2.5,2,4.3c0,1.8-0.7,3.2-2,4.3
			c-0.3,0.2-0.5,0.4-0.8,0.6c0.6,0.2,1,0.5,1.5,0.9c1.4,1.1,2.1,2.6,2.1,4.6c0,2.1-0.7,3.9-2.2,5.3c-1.5,1.4-3.4,2-5.7,2
			c-2.6,0-4.5-0.6-5.8-1.9s-2-3.1-2.1-5.7h3c0.2,1.8,0.6,3.1,1.4,3.8c0.8,0.8,2,1.2,3.6,1.2c1.4,0,2.6-0.4,3.5-1.2
			c0.9-0.8,1.4-1.9,1.4-3.1c0-1.3-0.4-2.4-1.3-3.2c-0.7-0.7-1.7-1.1-2.9-1.1c-0.5,0-1.1,0-1.5,0s-0.8,0-1,0.1v-2.5
			c0.2,0.1,0.6,0.1,1.1,0.1c0.5,0,1,0,1.4-0.1c0.9-0.1,1.7-0.4,2.2-0.9C433.9,25.6,434.3,24.7,434.3,23.5z"/>
	</g>
	<g>
		<path class="st1" d="M315.5,33.2h-7.1v-2.4h7.1v-7.1h2.4v7.1h7.1v2.4h-7.1v7.1h-2.4V33.2z"/>
		<path class="st1" d="M342.8,24.1c0,1.7-0.4,3.1-1.3,4.2c-0.9,1.1-2.5,2.3-4.9,3.6c-2.6,1.4-4.4,2.7-5.3,3.9
			c-0.4,0.5-0.7,1.1-1,1.7h12.5v2.8h-15.7v0c0-2.4,0.6-4.4,1.8-5.9c1.2-1.5,3.5-3.2,6.8-5c1.6-0.9,2.7-1.7,3.3-2.5
			c0.6-0.7,0.9-1.7,0.9-2.9c0-1.2-0.4-2.2-1.3-3c-0.9-0.8-2-1.2-3.3-1.2c-1.4,0-2.5,0.5-3.4,1.5c-0.8,1-1.2,2.4-1.3,4.1h-2.8
			c0-2.5,0.6-4.5,2-5.9c1.4-1.4,3.3-2.2,5.8-2.2c2.1,0,3.9,0.6,5.2,1.9C342.1,20.5,342.8,22.1,342.8,24.1z"/>
	</g>
	<g>
		<path class="st1" d="M211.6,33.2h-7.1v-2.4h7.1v-7.1h2.4v7.1h7.1v2.4H214v7.1h-2.4V33.2z"/>
		<path class="st1" d="M231,24h-5.4v-2.3c1.6,0,2.9-0.3,3.9-1c1-0.7,1.7-1.8,2.2-3.3h2.3v22.9h-1.5H231V24z"/>
	</g>
	<g>
		<path class="st1" d="M126.2,37.8c-1.4-2-2-4.9-2-8.7s0.7-6.7,2-8.7c1.4-2,3.3-3.1,5.8-3.1c2.5,0,4.5,1,5.8,3.1c1.4,2,2,4.9,2,8.7
			s-0.7,6.7-2,8.7c-1.4,2-3.3,3.1-5.8,3.1C129.5,40.9,127.6,39.8,126.2,37.8z M135.7,36c0.8-1.5,1.2-3.8,1.2-6.9
			c0-3.1-0.4-5.4-1.2-6.9c-0.8-1.5-2-2.3-3.6-2.3c-1.6,0-2.8,0.8-3.6,2.3c-0.8,1.5-1.2,3.8-1.2,6.9c0,3.1,0.4,5.4,1.2,6.9
			c0.8,1.5,2,2.3,3.6,2.3C133.6,38.3,134.8,37.5,135.7,36z"/>
	</g>
	<g>
		<path class="st1" d="M1161.7,33.2h-7.1v-2.4h7.1v-7.1h2.4v7.1h7.1v2.4h-7.1v7.1h-2.4V33.2z"/>
		<path class="st1" d="M1181.1,24h-5.4v-2.3c1.6,0,2.9-0.3,3.9-1c1-0.7,1.7-1.8,2.2-3.3h2.3v22.9h-1.5h-1.5V24z"/>
		<path class="st1" d="M1199.2,24h-5.4v-2.3c1.6,0,2.9-0.3,3.9-1c1-0.7,1.7-1.8,2.2-3.3h2.3v22.9h-1.5h-1.5V24z"/>
	</g>
	<line id="XMLID_3_" class="st0" x1="2357.3" y1="1382.4" x2="84" y2="1381.7"/>
	<g id="XMLID_613_">
		<line id="XMLID_435_" class="st2" x1="2030.8" y1="1355.8" x2="2030.8" y2="1355.8"/>
	</g>
	
		<radialGradient id="XMLID_32_" cx="1576.4326" cy="1097.9664" r="0" gradientTransform="matrix(1 0 0 1.1218 0 150.9167)" gradientUnits="userSpaceOnUse">
		<stop  offset="0" style="stop-color:#0A233C"/>
		<stop  offset="0.3539" style="stop-color:#06152D"/>
		<stop  offset="1" style="stop-color:#000014"/>
	</radialGradient>
	<path id="XMLID_1021_" class="st3" d="M1576.4,1382.7"/>
	<g id="XMLID_517_">
		<path id="XMLID_992_" class="st4" d="M847,729h1l1.6,4.1h0l1.5-4.1h1v5.5h-0.7V730h0l-1.6,4.5h-0.4l-1.6-4.5h0v4.5H847V729z"/>
		<path id="XMLID_987_" class="st4" d="M854.1,730.6c1,0,1.7,1,1.7,2.1c0,1.1-0.8,1.8-1.7,1.8c-1,0-1.7-0.9-1.7-1.9
			C852.4,731.5,853.2,730.6,854.1,730.6z M854.1,733.8c0.7,0,1.1-0.5,1.1-1.3s-0.4-1.3-1.1-1.3c-0.7,0-1.1,0.5-1.1,1.3
			S853.5,733.8,854.1,733.8z"/>
		<path id="XMLID_981_" class="st4" d="M856.2,729h0.6v2.2h0c0.2-0.4,0.7-0.6,1.1-0.6c1,0,1.7,0.8,1.7,1.9c0,1.1-0.6,1.9-1.7,1.9
			c-0.4,0-0.9-0.2-1.1-0.6h0v0.6h-0.6V729z M859,732.5c0-0.7-0.4-1.3-1.1-1.3s-1.1,0.5-1.1,1.3s0.4,1.3,1.1,1.3S859,733.3,859,732.5
			z"/>
		<path id="XMLID_952_" class="st4" d="M859.6,730.8h0.7l1,2.8l0.9-2.8h0.7l-1.3,3.7H861L859.6,730.8z"/>
		<path id="XMLID_610_" class="st4" d="M863.6,729c0.2,0,0.5,0.2,0.5,0.5c0,0.3-0.2,0.5-0.5,0.5c-0.2,0-0.5-0.2-0.5-0.5
			C863.1,729.2,863.3,729,863.6,729z M863.3,730.8h0.6v3.7h-0.6V730.8z"/>
		<path id="XMLID_608_" class="st4" d="M866.2,731.6c-0.1-0.2-0.4-0.4-0.7-0.4c-0.3,0-0.5,0.1-0.5,0.4c0,0.4,0.6,0.5,0.8,0.6
			c0.5,0.1,1,0.4,1,1.1c0,0.8-0.7,1.2-1.3,1.2c-0.5,0-0.9-0.2-1.3-0.7l0.5-0.4c0.2,0.2,0.4,0.4,0.8,0.4c0.3,0,0.7-0.1,0.7-0.5
			c0-0.4-0.5-0.5-0.8-0.6c-0.5-0.1-1-0.3-1-1c0-0.8,0.6-1.1,1.2-1.1c0.4,0,0.9,0.2,1.1,0.6L866.2,731.6z"/>
		<path id="XMLID_574_" class="st4" d="M869.1,731.3h-0.9v1.7c0,0.4,0,0.8,0.5,0.8c0.1,0,0.3,0,0.4-0.1v0.6
			c-0.1,0.1-0.4,0.1-0.6,0.1c-1,0-1-0.7-1-1.2v-1.9h-0.7v-0.6h0.7v-1h0.6v1h0.9V731.3z"/>
		<path id="XMLID_538_" class="st4" d="M869.5,731.1c0.3-0.4,0.8-0.5,1.3-0.5c1,0,1.4,0.6,1.4,1.2v1.9c0,0.3,0,0.5,0,0.7h-0.6
			c0-0.2,0-0.4,0-0.6h0c-0.3,0.5-0.6,0.7-1.1,0.7c-0.6,0-1.1-0.4-1.1-1.1c0-0.9,0.8-1.3,1.8-1.3h0.5v-0.2c0-0.4-0.2-0.8-0.8-0.8
			c-0.5,0-0.7,0.2-0.9,0.4L869.5,731.1z M871.3,732.6c-0.6,0-1.3,0.1-1.3,0.7c0,0.4,0.3,0.6,0.7,0.6c0.7,0,0.9-0.6,0.9-1.1v-0.2
			H871.3z"/>
		<path id="XMLID_1_" class="st4" d="M872.6,733.9c0-0.3,0.2-0.5,0.5-0.5c0.2,0,0.5,0.2,0.5,0.5c0,0.3-0.2,0.5-0.5,0.5
			C872.8,734.5,872.6,734.2,872.6,733.9z"/>
	</g>
</g>
</svg>
